<?xml version="1.0" encoding="utf-8"?>
<!-- Generator: Adobe Illustrator 16.0.0, SVG Export Plug-In . SVG Version: 6.00 Build 0)  -->
<!DOCTYPE svg PUBLIC "-//W3C//DTD SVG 1.1//EN" "http://www.w3.org/Graphics/SVG/1.1/DTD/svg11.dtd">
<svg version="1.1" id="Objects" xmlns="http://www.w3.org/2000/svg" xmlns:xlink="http://www.w3.org/1999/xlink" x="0px" y="0px"
	 width="121px" height="109px" viewBox="0 0 121 109" enable-background="new 0 0 121 109" xml:space="preserve">
<g>
	<path fill="#5E3E22" d="M43.883,55.127c-5.502-1.943-7.421-15.691-5.929-25.043C29.975,33.72,24.202,44.3,24.202,56.791
		c0,15.497,8.883,28.059,19.842,28.059c1.488,0,2.937-0.239,4.332-0.679C55.385,68.633,50.88,57.598,43.883,55.127z"/>
	<path fill="#5E3E22" d="M66.314,55.839c0-15.497-8.883-28.059-19.842-28.059c-2.125,0-4.17,0.478-6.09,1.353
		c-1.492,9.352,0.427,23.1,5.93,25.042c6.998,2.471,11.502,13.506,4.493,29.043C59.678,80.423,66.314,69.23,66.314,55.839z"/>
</g>
<g>
	<path fill="#5E3E22" d="M85.374,78.413c0.82,4.029-6.793,10.171-12.985,12.659c5.088,3.504,13.575,3.159,21.124-1.368
		c9.365-5.616,13.738-15.538,9.767-22.16c-0.54-0.899-1.208-1.688-1.98-2.372C89.368,66.567,84.331,73.289,85.374,78.413z"/>
	<path fill="#5E3E22" d="M77.675,64.599c-9.366,5.616-13.738,15.537-9.767,22.16c0.77,1.284,1.8,2.347,3.024,3.19
		c6.192-2.488,13.805-8.63,12.985-12.659c-1.043-5.125,3.994-11.846,15.924-13.241C94.937,59.7,85.767,59.746,77.675,64.599z"/>
</g>
</svg>
