<?xml version="1.0" encoding="utf-8"?>
<!-- Generator: Adobe Illustrator 16.0.0, SVG Export Plug-In . SVG Version: 6.00 Build 0)  -->
<!DOCTYPE svg PUBLIC "-//W3C//DTD SVG 1.1//EN" "http://www.w3.org/Graphics/SVG/1.1/DTD/svg11.dtd">
<svg version="1.1" id="Objects" xmlns="http://www.w3.org/2000/svg" xmlns:xlink="http://www.w3.org/1999/xlink" x="0px" y="0px"
	 width="239.564px" height="169.676px" viewBox="693.564 5.529 239.564 169.676"
	 enable-background="new 693.564 5.529 239.564 169.676" xml:space="preserve">
<path fill="#B89D64" d="M918.774,49.044c-5.016-7.071-14.784-9.425-22.852-6.939c-8.479,2.609-14.221,9.954-16.919,18.117
	c-0.055-1.058-0.079-2.118-0.05-3.185c0.276-10.277,4.994-19.77,9.654-28.716c0.359-0.209,0.486-0.527,0.439-0.844
	c0.005-0.011,0.011-0.022,0.017-0.033c0.444-0.852-0.291-1.617-1.011-1.637c-0.006-0.004-0.008-0.011-0.016-0.015
	c-9.048-6.565-19.832-7.982-30.678-9.238c-14.68-1.698-29.438-2.703-44.214-3.036c-28.746-0.645-58.551,0.372-86.769,6.291
	c-0.636,0.133-0.643,1.025-0.191,1.319c-0.023,0.044-0.052,0.084-0.066,0.132c-0.489-0.224-1.136,0.423-0.826,0.971
	c1.322,2.349,2.402,4.696,3.289,7.042c-0.333-0.001-0.463,0.5-0.101,0.583c0.114,0.027,0.228,0.055,0.341,0.082
	c7.635,21.107-0.852,42.188-2.801,63.932c-0.277-0.028-0.555-0.054-0.832-0.08c-0.39-0.04-0.386,0.565,0,0.606
	c0.258,0.027,0.517,0.056,0.774,0.082c-0.212,2.527-0.333,5.063-0.327,7.608c-0.196,0.136-0.22,0.437,0.001,0.542
	c0.012,1.223,0.042,2.445,0.117,3.674c-0.059-0.007-0.116-0.011-0.174-0.019c-0.38-0.054-0.546,0.526-0.161,0.58
	c0.127,0.019,0.254,0.032,0.382,0.05c0.04,0.576,0.075,1.15,0.13,1.729c0.312,3.219,0.961,6.313,1.849,9.305
	c-0.049-0.005-0.097-0.006-0.146-0.012c-0.364-0.037-0.359,0.527,0,0.567c0.107,0.011,0.215,0.019,0.322,0.03
	c5.014,16.17,17.94,28.73,33.751,35.496c0.659,0.283,1.338,0.523,2.005,0.788c0.069,5.028,3.178,8.731,8.176,10.868
	c2.339,0.998,4.928,1.761,7.639,2.369c0.245,0.213,0.442,0.375,0.846,0.324c0.087-0.009,0.143-0.055,0.196-0.102
	c8.554,1.768,18.283,1.982,26.099,2.271c3.79,0.141,12.571,0.002,21.238-1.375c0.01,0.006,0.018,0.014,0.025,0.02
	c0.176,0.132,0.386,0.044,0.514-0.109c2.733-0.453,5.434-1.039,7.961-1.773c0.039,0.023,0.076,0.054,0.115,0.078
	c0.135,0.08,0.314,0.051,0.425-0.057c0.077-0.074,0.125-0.15,0.166-0.225c6.363-1.948,11.423-4.937,12.538-9.457
	c0.179-0.086,0.299-0.275,0.159-0.477c-0.01-0.016-0.023-0.025-0.035-0.041c0.275-1.57,0.088-3.318-0.674-5.268
	c14.304-5.979,26.495-15.832,31.978-31.291c0.543-1.532,1.01-3.084,1.417-4.65c1.563,2.939,5.469,4.555,8.936,2.495
	c2.461-1.462,3.869-4.224,3.42-7.065c-0.417-2.644-2.583-5.627-5.364-6.06C901.134,91.223,934.36,71.011,918.774,49.044z
	 M807.827,15.611c13.002,0.143,26.004,0.815,38.951,2.021c13.419,1.249,27.933,1.865,39.496,9.458
	c-4.459,1.87-9.049,3.519-13.71,5.034c-0.501-0.509-1.034-0.992-1.597-1.446c0.833,0.215,1.666,0.432,2.5,0.668
	c1.242,0.353,1.742-1.523,0.529-1.922c-41.98-13.812-90.149-9.583-132.945-1.805c-0.641,0.116-0.714,0.929-0.371,1.348
	c-4.571-2.309-9.029-4.907-13.35-7.818C754.221,18.355,780.719,15.313,807.827,15.611z M851.671,37.161
	c1.104,1.69-0.621-0.295-0.896-0.574c-0.708-0.715-1.422-1.424-2.144-2.124c-1.443-1.402-2.915-2.775-4.416-4.114
	c-2.106-1.878-4.283-3.677-6.501-5.423c0.959,0.084,1.921,0.187,2.883,0.283c4.549,4.02,9.037,8.104,13.47,12.253
	c-0.401,0.095-0.798,0.209-1.201,0.302c-0.14-0.303-0.353-0.602-0.682-0.997C851.948,36.48,851.469,36.851,851.671,37.161z
	 M848.76,38.492c-4.861-4.697-9.811-9.325-14.809-13.876c0.861,0.061,1.722,0.142,2.582,0.213
	c5.093,4.205,9.948,8.622,14.547,13.361c-0.532,0.12-1.06,0.266-1.594,0.38c-0.106-0.178-0.207-0.36-0.314-0.537
	c-0.157-0.262-0.642-0.088-0.515,0.215C848.693,38.337,848.726,38.409,848.76,38.492z M845.336,39.441
	c-0.028,0.006-0.056,0.012-0.082,0.017c-4.86-5.288-10.025-10.304-15.358-15.113c0.99,0.056,1.982,0.131,2.972,0.197
	c4.943,4.855,9.971,9.65,15.061,14.356c-0.649,0.134-1.296,0.282-1.946,0.41c-0.04-0.1-0.074-0.201-0.113-0.3
	c-0.143-0.367-0.701-0.233-0.603,0.166C845.288,39.264,845.313,39.352,845.336,39.441z M838.338,40.227
	c-5.764-5.311-11.406-10.731-16.973-16.246c1.045,0.026,2.093,0.073,3.139,0.11c2.846,2.703,5.556,5.592,8.319,8.382
	c1.512,1.525,3.02,3.053,4.533,4.575c0.923,0.929,1.725,2.107,2.971,2.574c0.129,0.048,0.326-0.031,0.385-0.157
	c0.037-0.081,0.073-0.161,0.109-0.24c0.055-0.117,0.066-0.294-0.049-0.385c-0.057-0.043-0.112-0.088-0.168-0.134
	c-0.296-0.233-0.675,0.127-0.42,0.42c-3.149-3.619-6.643-6.939-10.063-10.325c-1.524-1.51-3.043-3.028-4.589-4.518
	c-0.056-0.055-0.104-0.107-0.156-0.161c1.19,0.044,2.384,0.114,3.575,0.175c5.261,4.965,10.314,10.112,15.291,15.358
	c-1.956,0.372-3.917,0.719-5.884,1.036C838.466,40.562,838.499,40.377,838.338,40.227z M813.828,42.36
	c-0.129-0.341-0.736-0.333-0.692,0.094c-0.124-1.212-3.658-3.349-4.56-4.123c-2.056-1.767-4.108-3.537-6.164-5.305
	c-3.298-2.838-6.588-5.685-9.922-8.483c0.927-0.056,1.852-0.104,2.776-0.153c-0.064,0.046-0.102,0.142-0.029,0.205
	c3.734,3.325,7.714,6.384,11.532,9.612c1.801,1.522,3.591,3.056,5.368,4.604c0.889,0.775,1.774,1.553,2.658,2.334
	c0.441,0.389,0.882,0.781,1.321,1.175c0.272,0.424,0.625,0.632,1.046,0.656c-0.018,0.062,0,0.136,0.024,0.211
	c-1.005,0.055-2.011,0.113-3.018,0.152c-0.005-0.026,0.011-0.044,0.001-0.072L813.828,42.36z M743.052,29.032
	c0.842-0.085,1.682-0.171,2.522-0.257c1.623,1.61,3.3,3.22,5.087,4.669c-1.249-0.501-2.491-1.017-3.728-1.557
	C745.661,30.895,744.336,29.961,743.052,29.032z M744.237,30.67c-1.031-0.48-2.061-0.959-3.081-1.47
	c0.038,0.003,0.07,0.017,0.111,0.013c0.381-0.039,0.762-0.078,1.143-0.116c0.013,0.024,0.01,0.051,0.035,0.071
	C743.037,29.66,743.636,30.166,744.237,30.67z M746.387,28.691c0.537-0.056,1.069-0.111,1.604-0.167
	c2.388,2.184,4.738,4.452,7.164,6.6c-0.797-0.286-1.597-0.565-2.388-0.868C750.668,32.369,748.481,30.585,746.387,28.691z
	 M752.479,31.602c-1.226-1.085-2.481-2.139-3.768-3.153c0.548-0.056,1.091-0.112,1.638-0.169c2.413,2.67,4.909,5.361,7.574,7.807
	c-0.186-0.062-0.372-0.117-0.557-0.179c-0.045-0.039-0.093-0.055-0.144-0.047c-0.201-0.068-0.402-0.134-0.604-0.204
	C755.499,34.17,753.894,32.856,752.479,31.602z M751.05,28.208c0.581-0.06,1.156-0.119,1.734-0.179
	c2.339,3.039,4.916,6.271,7.801,8.906c-0.213-0.067-0.427-0.127-0.64-0.193C757.023,33.861,753.987,31.083,751.05,28.208z
	 M757.935,32.887c-1.521-1.597-2.97-3.254-4.396-4.936c0.506-0.053,1.007-0.104,1.512-0.155c3.281,3.708,6.818,7.374,10.625,10.611
	c-0.966-0.263-1.933-0.525-2.893-0.809C761.216,35.99,759.475,34.505,757.935,32.887z M755.836,27.715
	c0.843-0.086,1.681-0.17,2.521-0.257c4.038,4.073,8.075,8.364,12.386,12.173c-1.021-0.238-2.055-0.44-3.07-0.701
	C763.678,35.231,759.665,31.604,755.836,27.715z M759.128,27.379c0.568-0.058,1.136-0.114,1.703-0.171
	c4.593,4.382,9.153,8.878,14.022,12.927c0.339,0.282,0.813-0.168,0.493-0.493c-4.339-4.38-9.077-8.432-13.725-12.513
	c0.535-0.055,1.069-0.104,1.605-0.16c5.236,4.695,10.406,9.445,15.517,14.271c-2.041-0.356-4.079-0.734-6.101-1.174
	C768.476,35.587,763.687,31.485,759.128,27.379z M764.034,26.889c0.812-0.082,1.619-0.158,2.43-0.237
	c4.916,5.108,9.885,10.321,15.167,15.048c-0.425-0.066-0.855-0.111-1.28-0.18C775.102,36.452,769.652,31.548,764.034,26.889z
	 M767.211,26.58c0.626-0.061,1.25-0.117,1.876-0.178c5.561,5.304,11.105,10.63,16.749,15.846c-0.896-0.112-1.792-0.202-2.684-0.332
	C778.108,36.588,772.585,31.6,767.211,26.58z M769.951,26.321c0.666-0.065,1.329-0.121,1.995-0.184
	c5.998,5.578,12.062,11.09,18.15,16.568c-0.938-0.095-1.881-0.167-2.817-0.277C781.579,36.981,775.752,31.661,769.951,26.321z
	 M772.691,26.068c1.258-0.117,2.515-0.224,3.772-0.335c5.855,5.781,11.731,11.543,17.611,17.3c-0.82-0.062-1.645-0.104-2.464-0.178
	C785.349,37.214,779.049,31.605,772.691,26.068z M777.367,25.653c0.759-0.067,1.516-0.125,2.272-0.188
	c6.077,5.976,12.211,11.901,18.366,17.798c-0.817-0.042-1.636-0.067-2.452-0.122C789.502,37.301,783.443,31.467,777.367,25.653z
	 M780.391,25.403c0.931-0.077,1.861-0.145,2.791-0.218c6.343,6.241,12.981,12.215,19.526,18.243c-1.09-0.028-2.18-0.044-3.269-0.093
	C793.124,37.323,786.782,31.333,780.391,25.403z M784.087,25.114c1.292-0.099,2.581-0.189,3.869-0.279
	c2.906,3.35,6.578,6.35,9.834,9.484c3.094,2.979,6.084,6.056,9.053,9.155c-0.877-0.001-1.754,0.01-2.63-0.005
	C797.545,37.327,790.938,31.061,784.087,25.114z M788.396,24.803c1.127-0.077,2.252-0.145,3.377-0.214
	c6.967,6.37,14.087,12.592,21.201,18.796c-1.586,0.051-3.171,0.083-4.756,0.093C801.972,36.905,795.361,30.614,788.396,24.803z
	 M795.406,24.38c1.201-0.064,2.401-0.119,3.602-0.174c6.69,6.145,13.438,12.225,20.007,18.501c0.005,0.004,0.001,0.011,0.007,0.015
	c0.115,0.108,0.229,0.214,0.346,0.321c-0.323,0.022-0.646,0.062-0.971,0.082C810.999,36.643,803.52,29.956,795.406,24.38z
	 M799.61,24.177c0.764-0.034,1.528-0.059,2.294-0.088c0.049,0.051,0.101,0.105,0.15,0.159c0.126,0.13,0.343-0.019,0.292-0.176
	c0.007,0,0.017,0,0.023,0c2.59,3.702,6.862,6.796,10.222,9.886c3.196,2.94,6.399,5.875,9.583,8.833
	c-0.526,0.042-1.051,0.111-1.576,0.15C813.645,36.639,806.736,30.283,799.61,24.177z M821.874,41.224
	c-6.37-5.722-12.647-11.549-19.107-17.169c0.938-0.033,1.875-0.057,2.812-0.083c6.277,6.462,13.064,12.506,19.817,18.491
	c-0.586,0.056-1.171,0.139-1.757,0.19c-0.438-0.468-0.859-0.95-1.32-1.394C822.167,41.106,821.999,41.133,821.874,41.224z
	 M806.443,23.945c1.194-0.03,2.388-0.051,3.581-0.069c6.335,6.107,12.758,12.127,19.184,18.139c-0.82,0.094-1.636,0.217-2.455,0.302
	C821.872,37.823,810.165,26.951,806.443,23.945z M810.95,23.863c0.77-0.01,1.537,0.005,2.307,0
	c3.515,3.542,7.188,6.932,10.807,10.366c1.756,1.666,3.511,3.334,5.27,5c0.691,0.655,1.516,1.797,2.453,2.451
	c-0.303,0.04-0.604,0.091-0.908,0.129c-0.116-0.149-0.284-0.3-0.716-0.746c-0.157-0.165-0.406-0.055-0.477,0.118
	C823.472,35.377,817.246,29.578,810.95,23.863z M830.567,39.134c-0.747-0.768-1.577-1.471-2.359-2.203
	c-1.771-1.653-3.541-3.305-5.312-4.959c-2.911-2.718-5.807-5.463-8.786-8.108c0.837-0.002,1.675,0.021,2.512,0.026
	c5.824,5.743,11.699,11.481,17.732,17.002c0.227,0.207,0.726,0.086,0.681-0.282c-0.037-0.296-0.071-0.591-0.108-0.888
	c-0.046-0.378-0.55-0.383-0.593,0c0.078-0.729-3.37-3.2-4.02-3.816c-1.547-1.464-3.092-2.926-4.637-4.388
	c-2.694-2.546-5.388-5.096-8.105-7.617c0.967,0.008,1.936,0.043,2.902,0.062c5.534,5.84,11.323,11.45,17.343,16.787
	c0.019,0.015,0.037,0.006,0.054,0.018c-1.53,0.243-3.06,0.494-4.596,0.704c-0.058-0.104-0.142-0.188-0.271-0.18
	c-0.043,0.003-0.086,0.006-0.129,0.009c-0.164,0.01-0.27,0.134-0.304,0.27c-0.044,0.007-0.089,0.013-0.135,0.019
	C831.871,40.91,830.858,39.435,830.567,39.134z M841.837,25.33c1.47,0.157,2.938,0.333,4.409,0.521
	c3.26,1.89,5.514,4.842,7.956,7.673c0.496,0.575,1.684,2.317,2.863,3.163c-0.652,0.164-1.296,0.351-1.951,0.509
	C850.801,33.119,846.368,29.165,841.837,25.33z M856.335,34.635c-0.533-0.55-1.045-1.12-1.55-1.694
	c-0.929-1.053-1.819-2.138-2.765-3.175c-1.275-1.4-2.639-2.667-4.185-3.7c1.26,0.171,2.521,0.379,3.782,0.574
	c1.888,1.966,3.829,3.881,5.758,5.805c0.944,0.942,1.976,2.276,3.104,3.326c-0.508,0.137-1.009,0.288-1.517,0.419
	c-0.085-0.389-0.716-0.304-0.698,0.096C858.268,36.371,856.449,34.753,856.335,34.635z M859.888,33.731
	c-0.963-0.937-1.93-1.871-2.895-2.803c-1.435-1.387-2.877-2.765-4.333-4.13c1.406,0.225,2.815,0.476,4.225,0.732
	c2.28,2.437,4.545,4.89,6.833,7.32c-0.694,0.196-1.381,0.407-2.078,0.599C861.118,34.815,860.433,34.263,859.888,33.731z
	 M863.576,33.383c-0.817-0.887-1.644-1.768-2.473-2.642c-0.941-0.995-1.897-1.976-2.846-2.96c1.002,0.19,2.006,0.429,3.01,0.635
	c1.413,1.298,2.792,2.63,4.065,4.076c0.405,0.458,0.837,1.027,1.32,1.492c-0.617,0.183-1.227,0.378-1.846,0.556
	C864.308,34.054,863.751,33.572,863.576,33.383z M864.324,30.178c-0.487-0.491-0.996-0.962-1.503-1.436
	c0.933,0.201,1.867,0.425,2.801,0.637c0.637,0.647,1.281,1.283,1.9,1.949c0.554,0.597,1.083,1.252,1.632,1.886
	c-0.506,0.156-1.006,0.321-1.514,0.472C866.353,32.842,865.143,31.004,864.324,30.178z M868.257,30.955
	c-0.415-0.435-0.858-0.841-1.282-1.269c0.548,0.129,1.095,0.267,1.643,0.399c1.014,0.754,2.007,1.537,2.975,2.351
	c-0.493,0.158-0.981,0.322-1.477,0.477C869.515,32.235,868.861,31.592,868.257,30.955z M765.845,156.77
	c1.675,2.217,3.801,4.396,6.081,6.261C769.029,161.473,766.841,159.436,765.845,156.77z M777.208,165.172
	c-0.135-0.117-0.271-0.229-0.404-0.346l-3.317-2.833c-2.212-1.888-4.416-3.792-6.68-5.62c-0.185-0.148-0.447,0.1-0.267,0.268
	c2.801,2.584,5.702,5.062,8.572,7.572c0.149,0.131,0.295,0.268,0.443,0.399c-0.174-0.062-0.357-0.116-0.528-0.183
	c-1.462-1.16-2.961-2.272-4.356-3.521c-1.756-1.566-3.31-3.325-5.021-4.932c-0.016-0.017-0.037-0.014-0.054-0.021
	c-0.041-0.152-0.095-0.295-0.129-0.449c1.585,0.58,3.194,1.096,4.816,1.575c2.08,1.929,4.167,3.853,6.265,5.763
	c1.168,1.062,2.362,2.188,3.667,3.129C779.189,165.73,778.178,165.469,777.208,165.172z M781.939,166.354
	c-3.737-2.807-7.204-5.926-10.712-9.01c0.848,0.241,1.707,0.447,2.562,0.664c3.104,3.062,6.541,6.299,10.23,8.73
	C783.321,166.619,782.626,166.494,781.939,166.354z M785.648,167.001c-3.501-2.997-7.24-5.709-10.759-8.709
	c1.167,0.276,2.343,0.527,3.525,0.759c3.053,2.819,6.172,5.717,9.484,8.248C787.148,167.205,786.396,167.113,785.648,167.001z
	 M789.252,167.459c-3.075-2.861-6.416-5.502-9.658-8.197c0.63,0.112,1.265,0.207,1.898,0.312c3.308,2.771,6.621,5.67,10.16,8.121
	C790.856,167.624,790.057,167.547,789.252,167.459z M792.742,167.779c-3.062-2.896-6.56-5.445-9.964-7.996
	c0.63,0.092,1.271,0.139,1.904,0.22c3.288,2.679,6.562,5.479,10.03,7.921C794.063,167.881,793.407,167.834,792.742,167.779z
	 M795.836,167.988c-3.16-2.816-6.674-5.327-10.092-7.862c0.894,0.106,1.794,0.158,2.691,0.243c3.146,2.646,6.309,5.477,9.719,7.738
	C797.397,168.074,796.628,168.036,795.836,167.988z M798.738,168.135c0.045-0.096,0.056-0.209-0.038-0.298
	c-2.812-2.69-6.095-5.03-9.256-7.377c0.632,0.054,1.27,0.07,1.902,0.111c3.062,2.659,6.442,5.622,10.003,7.659
	C800.513,168.203,799.647,168.174,798.738,168.135z M802.723,168.273c-1.564-1.278-3.326-2.342-4.964-3.518
	c-1.849-1.328-3.644-2.722-5.434-4.128c0.848,0.052,1.698,0.062,2.549,0.095c3.057,2.662,6.326,5.405,9.788,7.604
	C804.049,168.309,803.406,168.293,802.723,168.273z M806.669,168.387c-0.211-0.008-0.471-0.014-0.697-0.02
	c-3.326-2.609-6.833-4.999-10.167-7.611c0.706,0.021,1.412,0.014,2.118,0.022c3.397,2.548,6.787,5.45,10.437,7.646
	C807.713,168.416,807.141,168.402,806.669,168.387z M809.287,168.43c-3.104-2.865-6.854-5.205-10.338-7.64
	c1.017,0.007,2.031-0.019,3.047-0.034c-0.161,0.102-0.237,0.377-0.029,0.533c3.134,2.364,6.228,4.943,9.511,7.121
	C810.69,168.426,809.955,168.432,809.287,168.43z M812.759,168.385c-3.27-2.767-6.969-5.129-10.443-7.623
	c-0.013-0.015-0.023-0.002-0.038-0.012c0.65-0.012,1.299-0.045,1.95-0.064c3.021,2.824,6.427,5.766,10.125,7.647
	C813.808,168.352,813.271,168.372,812.759,168.385z M815.281,168.295c-0.011-0.074-0.049-0.146-0.128-0.205
	c-3.364-2.502-6.831-4.719-10.023-7.438c0.601-0.023,1.198-0.088,1.8-0.117c3.456,2.553,6.935,5.408,10.635,7.635
	C816.783,168.219,816.019,168.262,815.281,168.295z M818.608,168.098c-3.237-2.832-7.037-5.207-10.615-7.636
	c0.704-0.042,1.402-0.12,2.106-0.171c3.042,2.625,6.332,5.456,9.874,7.197c0.265,0.132,0.593-0.219,0.337-0.438
	c-2.896-2.461-6.146-4.525-9.185-6.845c0.699-0.058,1.393-0.144,2.091-0.206c3.315,2.585,6.659,5.145,10.021,7.672
	C821.66,167.85,820.104,167.993,818.608,168.098z M824.528,167.518c-0.252-0.307-0.502-0.615-0.76-0.918
	c-0.172-0.207-0.469-0.013-0.463,0.213c-3.068-2.322-6.155-4.623-9.259-6.894c0.575-0.058,1.146-0.134,1.722-0.198
	c3.246,2.576,6.504,5.139,9.797,7.655C825.22,167.424,824.874,167.477,824.528,167.518z M826.719,167.217
	c-3.293-2.552-6.61-5.076-9.917-7.611c1.078-0.122,2.15-0.268,3.222-0.41c-0.17,0.117-0.26,0.339-0.057,0.513
	c2.9,2.479,5.994,5.091,9.323,7.077C828.436,166.941,827.578,167.088,826.719,167.217z M830.364,166.577
	c-3.253-2.513-6.714-4.747-9.888-7.382c-0.044-0.035-0.09-0.027-0.136-0.042c0.847-0.114,1.676-0.271,2.519-0.397
	c2.927,2.557,5.923,5.229,9.125,7.475C831.447,166.352,830.908,166.469,830.364,166.577z M835.092,165.424
	c-0.026-0.02-0.06-0.037-0.085-0.057c-1.035-0.758-2.059-1.53-3.073-2.312c-1.838-1.424-3.629-2.9-5.384-4.426
	c-0.346-0.299-0.849,0.196-0.504,0.502c2.532,2.264,5.165,4.592,7.97,6.592c-0.313,0.082-0.625,0.168-0.943,0.246
	c-3.001-2.549-6.226-4.875-9.296-7.355c1.943-0.305,3.873-0.641,5.786-1.006c2.648,2.32,5.363,4.906,8.306,6.906
	C836.979,164.842,836.05,165.146,835.092,165.424z M838.874,164.118c-2.596-2.396-5.563-4.497-8.32-6.72
	c0.769-0.153,1.529-0.321,2.293-0.483c2.346,2.196,4.752,4.695,7.394,6.597C839.797,163.723,839.344,163.926,838.874,164.118z
	 M841.121,163.078c-1.144-1.066-2.433-2.02-3.609-3.025c-1.28-1.093-2.549-2.203-3.812-3.317c0.212-0.046,0.43-0.082,0.642-0.134
	c0.545-0.129,1.085-0.276,1.629-0.414c2.185,2.018,4.333,4.127,6.619,6.039C842.122,162.521,841.638,162.807,841.121,163.078z
	 M843.272,161.748c-2.055-2.015-4.286-3.881-6.448-5.777c0.649-0.172,1.287-0.384,1.934-0.565c1.922,1.767,3.707,3.663,5.337,5.702
	C843.828,161.324,843.562,161.543,843.272,161.748z M844.717,160.557c-1.576-1.926-3.283-3.73-5.134-5.396
	c0.315-0.093,0.627-0.198,0.943-0.292c1.603,1.675,3.182,3.401,4.875,4.983C845.186,160.094,844.961,160.328,844.717,160.557z
	 M845.945,159.18c-0.244-0.25-0.522-0.479-0.744-0.703c-0.516-0.521-1.034-1.039-1.554-1.558l-2.304-2.305
	c0.393-0.123,0.782-0.255,1.174-0.379c1.052,0.7,2.064,1.455,3.012,2.294c0.437,0.386,0.842,0.838,1.263,1.27
	C846.558,158.278,846.275,158.739,845.945,159.18z M847.175,156.854c-0.457-0.416-0.941-0.803-1.37-1.162
	c-0.753-0.629-1.548-1.204-2.36-1.756c0.234-0.075,0.462-0.168,0.696-0.246c1.224,0.623,2.272,1.396,3.27,2.257
	C847.349,156.256,847.272,156.561,847.175,156.854z M845.051,153.37c0.771-0.269,1.548-0.522,2.306-0.817
	c0.176,0.824,0.231,1.604,0.188,2.342C846.762,154.301,845.915,153.799,845.051,153.37z M880.56,114.65
	c-8.633,34.961-48.524,43.299-79.672,43.88c-11.985,0.223-24.552-1.75-35.823-6.103c-0.145-0.144-0.354-0.216-0.561-0.222
	c-3.671-1.446-7.193-3.16-10.515-5.126c2.57,0.652,5.235,1.119,7.811,1.581c0.29,0.051,0.418-0.377,0.125-0.448
	c-2.997-0.729-6.111-1.486-9.188-1.906c-1.484-0.924-2.914-1.918-4.304-2.951c3.929,0.753,7.88,1.388,11.834,1.982
	c0.239,0.038,0.346-0.322,0.102-0.367c-3.955-0.709-7.921-1.385-11.9-1.938c-0.136-0.02-0.212,0.107-0.192,0.207
	c-2.482-1.859-4.792-3.907-6.912-6.125c1.178,0.595,2.507,0.703,3.883,0.872c3.6,0.442,7.2,0.868,10.81,1.218
	c0.31,0.029,0.298-0.439,0-0.479c-2.601-0.344-5.2-0.642-7.808-0.924c-2.463-0.269-5.685-0.117-7.727-1.654
	c-0.027-0.021-0.054-0.02-0.08-0.02c-0.913-1.005-1.783-2.048-2.612-3.126c4.415,0.706,8.892,1.248,13.332,1.63
	c0.246,0.021,0.308-0.396,0.061-0.437c-4.553-0.729-9.181-1.33-13.783-1.716c-0.804-1.072-1.555-2.189-2.271-3.334
	c4.158,0.979,8.379,1.779,12.627,2.219c0.304,0.029,0.378-0.491,0.072-0.537c-4.384-0.65-8.729-1.368-13.059-2.299
	c-0.408-0.672-0.784-1.367-1.16-2.062c4.406,0.605,8.812,1.262,13.238,1.694c0.215,0.021,0.267-0.345,0.052-0.38
	c-4.495-0.723-9.024-1.215-13.542-1.764c-0.597-1.135-1.134-2.312-1.642-3.51c4.487,0.76,9.045,1.275,13.6,1.176
	c0.33-0.006,0.329-0.496,0-0.51c-4.654-0.199-9.235-0.484-13.84-1.238c-0.42-1.028-0.797-2.086-1.151-3.158
	c3.867,0.369,7.745,0.625,11.632,0.615c0.331,0,0.33-0.502,0-0.517c-3.957-0.179-7.901-0.403-11.844-0.739
	c-0.344-1.097-0.651-2.217-0.923-3.359c3.95,0.529,7.896,1.09,11.862,1.468c0.295,0.028,0.365-0.476,0.07-0.521
	c-4.006-0.65-8.041-1.114-12.069-1.613c-0.196-0.877-0.368-1.771-0.521-2.676c3.855,0.269,7.729,0.609,11.588,0.615
	c0.285,0,0.271-0.402,0-0.434c-3.864-0.454-7.782-0.574-11.674-0.77c-0.187-1.192-0.337-2.41-0.447-3.649
	c3.518,0.412,7.067,0.636,10.599,0.422c0.33-0.021,0.335-0.507,0-0.515c-3.568-0.086-7.097-0.197-10.631-0.553
	c-0.075-1.002-0.145-2.013-0.16-3.053c-0.001-0.171,0.004-0.345,0.003-0.516c3.571,0.501,7.189,0.801,10.787,0.593
	c0.353-0.021,0.356-0.539,0-0.551c-3.629-0.123-7.198-0.284-10.784-0.738c0.006-1.062,0.048-2.14,0.104-3.222
	c3.452,0.22,6.919,0.488,10.371,0.481c0.35,0,0.333-0.493,0-0.528c-3.421-0.362-6.888-0.45-10.334-0.592
	c0.075-1.222,0.188-2.457,0.317-3.699c3.028,0.328,6.059,0.654,9.097,0.832c0.248,0.015,0.312-0.404,0.061-0.441
	c-3.018-0.439-6.056-0.732-9.094-1.021c0.107-0.977,0.235-1.957,0.369-2.944c3.294,0.196,6.588,0.399,9.886,0.513
	c0.357,0.012,0.352-0.525,0-0.553c-3.263-0.246-6.531-0.403-9.801-0.567c0.196-1.393,0.417-2.796,0.654-4.208
	c3.352,0.207,6.721,0.303,10.064,0.006c0.298-0.023,0.309-0.464,0-0.467c-3.325-0.04-6.639-0.015-9.959-0.164
	c0.184-1.066,0.375-2.139,0.573-3.213c3.6,0.69,7.249,1.155,10.916,1.145c0.364,0,0.359-0.54,0-0.562
	c-3.638-0.217-7.224-0.556-10.803-1.196c0.218-1.179,0.442-2.361,0.669-3.548c3.565,0.461,7.146,0.782,10.744,0.734
	c0.349-0.005,0.344-0.518,0-0.538c-3.55-0.207-7.086-0.443-10.615-0.866c0.22-1.152,0.443-2.308,0.665-3.463
	c3.416,0.42,6.831,0.874,10.259,1.188c0.301,0.026,0.375-0.488,0.072-0.533c-3.4-0.473-6.819-0.809-10.232-1.177
	c0.25-1.311,0.493-2.623,0.731-3.936c0.033,0.117,0.106,0.226,0.255,0.244c3.253,0.43,6.504,0.91,9.774,1.204
	c0.283,0.025,0.351-0.455,0.066-0.501c-3.263-0.542-6.559-0.897-9.841-1.307c-0.09-0.01-0.154,0.019-0.202,0.063
	c0.238-1.32,0.463-2.641,0.68-3.962c2.982,0.436,5.984,0.648,9.001,0.443c0.35-0.024,0.357-0.556,0-0.551
	c-2.992,0.031-5.95-0.064-8.915-0.438c0.092-0.575,0.176-1.147,0.262-1.722c3.619,0.117,7.135,0.659,10.706,1.239
	c0.357,0.059,0.521-0.46,0.153-0.557c-3.493-0.929-7.158-1.231-10.765-1.303c0.104-0.714,0.198-1.424,0.292-2.133
	c3.034,0.502,6.112,0.886,9.184,0.828c0.307-0.007,0.297-0.441,0-0.47c-3.047-0.284-6.08-0.495-9.109-0.902
	c0.188-1.47,0.34-2.935,0.466-4.396c3.005,0.817,6.156,1.344,9.259,1.127c0.32-0.023,0.324-0.485,0-0.5
	c-3.14-0.149-6.173-0.401-9.214-1.115c0.094-1.141,0.156-2.275,0.202-3.406c3.063,0.529,6.193,1.229,9.278,1.399
	c0.315,0.016,0.376-0.471,0.075-0.548c-3.014-0.776-6.229-1.045-9.328-1.471c0.036-1.082,0.042-2.158,0.026-3.23
	c1.991,0.384,3.982,0.759,5.975,1.14c0.961,0.182,2.91,1.027,3.814,0.451c0.158-0.101,0.19-0.277,0.115-0.442
	c-0.022-0.051-0.048-0.104-0.071-0.155c-0.054-0.12-0.233-0.187-0.355-0.146l-0.125,0.044c-0.183,0.062-0.235,0.225-0.204,0.367
	c-0.426-0.276-0.885-0.463-1.407-0.481c-0.265-0.045-0.53-0.093-0.796-0.138c-0.927-0.162-1.854-0.324-2.783-0.487
	c-1.389-0.244-2.776-0.485-4.167-0.725c-0.021-0.933-0.075-1.859-0.138-2.782c2.792,0.542,5.648,1.07,8.472,1.189
	c0.312,0.014,0.392-0.497,0.075-0.552c-2.849-0.492-5.729-0.784-8.586-1.248c-0.062-0.776-0.152-1.548-0.248-2.317
	c3.312,0.705,6.639,1.483,9.984,1.923c0.351,0.046,0.412-0.519,0.083-0.607c-3.323-0.875-6.765-1.411-10.157-2.028
	c-0.114-0.818-0.251-1.633-0.408-2.441c3.176,0.473,6.374,1.017,9.562,1.211c0.382,0.023,0.472-0.599,0.091-0.674
	c-3.219-0.636-6.541-0.924-9.816-1.284c-0.202-0.955-0.444-1.898-0.711-2.836c3.44,0.524,6.97,1.276,10.436,1.385
	c0.332,0.011,0.404-0.503,0.078-0.581c-3.459-0.836-7.163-1.034-10.702-1.464c-0.356-1.181-0.785-2.346-1.255-3.5
	c3.109,0.752,6.225,1.514,9.368,2.065c0.382,0.067,0.553-0.485,0.164-0.593c-3.25-0.896-6.569-1.57-9.878-2.261
	c-1.068-2.47-2.388-4.882-4.08-7.202c43.454,32.645,110.442,28.314,158.209,7.161c-5.463,10.874-9.775,22.006-8.244,34.495
	C879.283,81.5,884.871,97.182,880.56,114.65z M881.79,76.525c0.012-0.022,0.028-0.037,0.038-0.062
	c2.509-6.62,4.948-13.728,10.185-18.765c0.467-0.498,0.967-0.954,1.484-1.39c0.127,0.055,0.271,0.069,0.431-0.003
	c4.519-2.064,9.83-1.58,13.386,2.081c1.261,1.299,2.105,2.811,2.565,4.398c0.221,1.259,0.224,2.563-0.035,3.869
	c-0.06,0.296,0.061,0.559,0.253,0.737c-0.248,1.388-0.746,2.753-1.566,4.018c-0.14,0.216-0.094,0.443,0.038,0.616
	c-5.575,9.22-15.646,16.84-24.096,23.471c-0.156-3.989-0.579-7.965-1.239-11.86C882.831,81.259,882.314,78.892,881.79,76.525z
	 M888.412,106.219c0.052,0.176,0.151,0.34,0.311,0.448c1.656,1.14,3.25,1.896,4,3.938c0.812,2.215,0.082,4.513-1.784,5.926
	c-3.373,2.551-7.478,0.04-7.789-3.544c1.016-4.909,1.436-9.941,1.393-14.974c0.08-0.029,0.16-0.049,0.239-0.107
	c10.196-7.588,37.79-27.216,26.824-43.005c-3.723-5.36-10.223-5.272-15.616-2.536c-8.23,4.179-11.995,13.237-14.763,21.591
	c-0.625-2.807-1.23-5.618-1.659-8.45c0.1-0.111,0.185-0.246,0.231-0.428c2.708-10.456,9.3-20.864,21.206-21.7
	c14.283-1.006,21.991,12.384,17.659,25.197c-5.234,15.483-22.138,23.38-30.872,36.558
	C887.472,105.615,887.938,106.182,888.412,106.219z M739.103,29.382c0,0,38.581,19.139,79.579,15.14
	c41-4,53.863-12.356,56.442-13.248c2.58-0.892-33.614-8.952-64.174-7.412C780.391,25.403,776.092,21.346,739.103,29.382z"/>
</svg>
