<?xml version="1.0" encoding="utf-8"?>
<!-- Generator: Adobe Illustrator 16.0.0, SVG Export Plug-In . SVG Version: 6.00 Build 0)  -->
<!DOCTYPE svg PUBLIC "-//W3C//DTD SVG 1.1//EN" "http://www.w3.org/Graphics/SVG/1.1/DTD/svg11.dtd">
<svg version="1.1" id="Capa_1" xmlns="http://www.w3.org/2000/svg" xmlns:xlink="http://www.w3.org/1999/xlink" x="0px" y="0px"
	 width="352px" height="357px" viewBox="0 0 352 357" enable-background="new 0 0 352 357" xml:space="preserve">
<g>
	<g>
		<g>
			<g>
				<g>
					<path fill="#FFFFFF" d="M175.747,11.103c58.976,0,110.94,30.453,141.097,76.438l2.642-0.611
						C288.956,39.813,235.949,8.55,175.747,8.55c-87.49,0-159.817,65.983-169.94,150.794l2.65-0.611
						C18.841,75.631,89.879,11.103,175.747,11.103z"/>
				</g>
			</g>
			<g>
				<g>
					<path fill="#FFFFFF" d="M336.963,208.602c-13.733,79.287-82.975,139.791-166.123,139.791
						c-56.135,0-105.922-27.598-136.592-69.908l-2.688,0.621c31.078,43.445,81.909,71.838,139.28,71.838
						c84.781,0,155.326-61.955,168.83-142.967L336.963,208.602z"/>
				</g>
			</g>
			<g>
				<g>
					<path fill="#FFFFFF" d="M175.706,19.343c51.056,0,96.594,23.923,126.103,61.116l1.517-0.354
						c-29.754-37.811-75.882-62.167-127.619-62.167c-78.001,0-143.318,55.295-158.848,128.746l1.528-0.354
						C34.033,73.84,98.609,19.343,175.706,19.343z"/>
				</g>
			</g>
			<g>
				<g>
					<path fill="#FFFFFF" d="M329.135,209.932c-13.953,74.646-79.551,131.336-158.182,131.336
						c-52.65,0-99.477-25.414-128.861-64.617l-1.487,0.346c29.614,39.824,77.019,65.68,130.348,65.68
						c79.533,0,145.841-57.494,159.671-133.088L329.135,209.932z"/>
				</g>
			</g>
		</g>
	</g>
	<g>
		<path fill="#FFFFFF" d="M28.126,248.627l0.723-5.079c3.548,0.551,7.231,0.341,11.047-0.627c4.463-1.134,8.119-3.339,10.967-6.618
			c2.848-3.279,5.008-7.734,6.481-13.366c0.471-1.86,0.867-3.946,1.187-6.258s0.63-5.519,0.932-9.62
			c0.26-3.401,0.434-7.045,0.518-10.928c0.083-3.884,0.095-7.413,0.032-10.588c-0.063-3.174-0.237-6.685-0.522-10.529l4.845-3.84
			l-0.371,0.039l-1.061,0.105c-7.976,1.01-15.524,2.418-22.644,4.225c-3.646,0.924-6.652,1.941-9.018,3.049
			c-2.365,1.108-4.283,2.412-5.753,3.908c-2.004,2.104-2.709,4.331-2.113,6.682c1.219,4.804,7.907,6.009,20.064,3.611l-2.554,4.51
			c-3.323,0.627-6.319,0.754-8.988,0.379c-2.67-0.375-4.869-1.213-6.594-2.516c-1.727-1.304-2.854-2.993-3.381-5.072
			c-1.063-4.189,0.721-8.231,5.353-12.128c3.919-3.279,10.205-6.015,18.858-8.211c2.351-0.597,5.393-1.225,9.125-1.881
			c3.73-0.655,7.609-1.27,11.636-1.837c4.026-0.568,7.394-0.944,10.104-1.124l0.96-0.078l-1.133,5.182l-0.959,0.08
			c-3.136,0.217-6.77,0.54-10.903,0.973l-0.371,0.04l0.028,0.754l0.028,0.755c0.429,12.981,0.222,23.813-0.621,32.495
			c-0.844,8.681-2.449,15.86-4.815,21.537c-2.367,5.679-5.655,10.192-9.863,13.546c-4.208,3.353-9.549,5.849-16.022,7.491
			C31.624,248.12,29.891,248.433,28.126,248.627z"/>
		<path fill="#FFFFFF" d="M84.578,232.726l-4.146-73.36l4.704-3.968l1.638,65.836c0.075-0.272,0.105-0.442,0.089-0.511l0.5-2.956
			c0.852-5.075,2.37-9.666,4.554-13.775c2.076-3.826,4.322-6.046,6.742-6.661c1.294-0.328,2.439-0.174,3.435,0.462
			c0.996,0.636,1.67,1.652,2.025,3.049c0.199,0.784,0.292,1.938,0.281,3.466l0.033,2.275l-0.002,6.636l0.045,2.109
			c0.008,2.174,0.15,3.807,0.426,4.896c0.277,1.092,0.687,1.921,1.231,2.49c0.543,0.569,1.121,0.774,1.734,0.619
			c1.056-0.267,2.422-1.955,4.1-5.065l0.948,0.521l-0.317,0.679c-1.363,2.776-2.411,4.684-3.145,5.721
			c-0.735,1.037-1.477,1.652-2.226,1.844c-1.056,0.267-2.102-0.064-3.137-1c-1.034-0.934-1.742-2.15-2.123-3.65
			c-0.233-0.92-0.423-2.593-0.567-5.022l-0.807-11.326c-0.1-1.681-0.248-2.911-0.447-3.695c-0.182-0.716-0.508-1.212-0.978-1.492
			c-0.471-0.281-1.029-0.338-1.676-0.174c-1.261,0.32-2.521,1.429-3.78,3.326c-1.26,1.896-2.382,4.366-3.37,7.409
			c-0.987,3.043-1.714,6.211-2.185,9.501c-0.47,3.294-0.613,6.584-0.432,9.874L84.578,232.726z"/>
		<path fill="#FFFFFF" d="M136.148,210.663l1.115,0.534c-1.404,3.33-2.953,5.87-4.647,7.625c-1.694,1.753-3.699,2.924-6.017,3.512
			c-2.759,0.7-5.208,0.342-7.343-1.074c-2.135-1.416-3.588-3.64-4.358-6.671c-0.778-3.068-0.758-6.381,0.06-9.942
			c0.819-3.562,2.185-6.684,4.098-9.363c1.912-2.679,4.061-4.321,6.446-4.926c1.397-0.354,2.651-0.237,3.761,0.351
			c1.11,0.589,1.83,1.53,2.158,2.824c0.666,2.626-0.099,5.61-2.296,8.958c-2.196,3.352-5.531,6.572-10.004,9.666
			c0.036,0.282,0.096,0.593,0.182,0.933c0.597,2.352,1.729,4.104,3.401,5.255c1.67,1.155,3.528,1.472,5.572,0.953
			c1.602-0.404,3.023-1.302,4.268-2.687S134.988,213.243,136.148,210.663z M118.809,210.93c3.265-2.569,5.63-5.109,7.096-7.621
			c0.983-1.698,1.685-3.436,2.104-5.212c0.42-1.773,0.47-3.291,0.15-4.552c-0.406-1.603-1.342-2.217-2.807-1.845
			c-2.215,0.561-4.011,2.876-5.391,6.941C118.582,202.711,118.199,206.807,118.809,210.93z"/>
		<path fill="#FFFFFF" d="M181.407,164.803l-2.417-3.521c2.936-1.725,5.574-3.898,7.918-6.525c2.344-2.624,4.031-5.301,5.061-8.028
			c1.03-2.729,1.261-5.216,0.69-7.464c-0.424-1.669-1.293-2.847-2.608-3.526c-1.316-0.682-2.875-0.794-4.68-0.336
			c-2.148,0.545-4.355,1.703-6.625,3.477c-2.271,1.772-4.402,3.982-6.397,6.626c-1.993,2.647-3.774,5.673-5.338,9.079
			c-1.7,3.732-2.958,7.496-3.771,11.292c-0.813,3.797-1.204,7.55-1.169,11.258c0.035,3.708,0.527,7.436,1.478,11.183
			c1.617,6.372,4.363,11.051,8.24,14.038s8.353,3.836,13.43,2.549c3.271-0.83,6.261-2.368,8.973-4.617
			c2.711-2.247,5.625-5.597,8.736-10.049l0.649-0.871l0.9,0.968c-3.036,5.048-6.341,9.098-9.92,12.146
			c-3.578,3.046-7.445,5.098-11.602,6.153c-3.749,0.951-7.305,0.901-10.672-0.149c-3.367-1.048-6.251-2.982-8.651-5.799
			c-2.402-2.818-4.151-6.39-5.249-10.718c-0.796-3.134-1.166-6.521-1.11-10.161c0.055-3.64,0.551-7.438,1.488-11.394
			c0.936-3.954,2.233-7.882,3.891-11.784c1.741-4.142,3.866-7.989,6.373-11.544c2.506-3.555,5.179-6.49,8.018-8.807
			c2.839-2.316,5.537-3.797,8.092-4.447c2.419-0.613,4.526-0.414,6.325,0.599c1.798,1.012,2.995,2.693,3.592,5.045
			c0.667,2.623,0.492,5.579-0.525,8.863c-1.015,3.285-2.688,6.412-5.018,9.378C187.179,160.682,184.479,163.044,181.407,164.803z"/>
		<path fill="#FFFFFF" d="M208.645,190.256c-0.777-3.067-0.728-6.335,0.151-9.803c0.88-3.468,2.388-6.487,4.527-9.062
			c2.138-2.574,4.57-4.206,7.297-4.898c2.861-0.727,5.409-0.364,7.645,1.079c2.233,1.446,3.732,3.668,4.492,6.667
			c0.83,3.271,0.825,6.644-0.017,10.12c-0.839,3.478-2.331,6.529-4.474,9.16c-2.146,2.629-4.562,4.285-7.253,4.967
			c-2.896,0.735-5.479,0.35-7.746-1.163C210.999,195.813,209.457,193.458,208.645,190.256z M227.665,173.463
			c-0.519-2.044-1.449-3.604-2.792-4.676c-1.344-1.075-2.797-1.413-4.363-1.016c-1.432,0.362-2.688,1.172-3.765,2.424
			c-1.078,1.253-1.938,2.904-2.579,4.952c-0.708,2.354-1.116,4.996-1.225,7.925c-0.109,2.93,0.104,5.449,0.641,7.562
			c0.641,2.521,1.625,4.338,2.959,5.449c1.334,1.112,2.922,1.434,4.762,0.968c2.965-0.752,5.05-3.475,6.249-8.168
			c0.622-2.405,0.941-5.005,0.958-7.803C228.525,178.285,228.243,175.746,227.665,173.463z"/>
		<path fill="#FFFFFF" d="M241.209,163.39l-5.007,1.271l-0.083-1.829l5.058-1.283l-0.887-23.652
			c-0.125-3.921-0.043-7.097,0.246-9.528c0.289-2.431,0.827-4.598,1.614-6.502c1.936-4.661,5.083-7.545,9.443-8.652
			c1.466-0.372,2.873-0.474,4.22-0.308l-0.658,5.117c-1.849-1.562-3.827-2.076-5.938-1.54c-1.604,0.407-2.748,1.358-3.437,2.857
			c-0.69,1.498-1.03,3.769-1.02,6.812l0.402,34.385l8.229-2.088l0.081,1.827l-8.277,2.102l0.363,30.803
			c0.067,4.118-0.092,7.24-0.478,9.368c-0.385,2.129-1.119,4.2-2.203,6.217c-1.973,3.655-4.577,5.895-7.814,6.716
			c-1.567,0.397-3.034,0.479-4.398,0.245l1.57-4.314c1.726,0.794,3.422,0.98,5.092,0.558c2.521-0.641,4.075-2.449,4.66-5.425
			c0.419-2.21,0.561-5.727,0.424-10.551L241.209,163.39z"/>
		<path fill="#FFFFFF" d="M257.973,159.137l-5.009,1.271l-0.085-1.828l5.06-1.283l-0.887-23.654
			c-0.124-3.92-0.045-7.097,0.246-9.527s0.827-4.598,1.614-6.502c1.938-4.66,5.083-7.545,9.445-8.652
			c1.464-0.371,2.871-0.475,4.22-0.309l-0.66,5.117c-1.847-1.562-3.827-2.075-5.94-1.54c-1.602,0.407-2.746,1.359-3.435,2.857
			c-0.689,1.499-1.03,3.77-1.018,6.813l0.402,34.385l8.227-2.089l0.083,1.829l-8.277,2.101l0.363,30.804
			c0.065,4.117-0.094,7.238-0.48,9.367c-0.384,2.13-1.118,4.201-2.202,6.217c-1.973,3.654-4.579,5.895-7.813,6.715
			c-1.567,0.398-3.035,0.479-4.399,0.246l1.57-4.315c1.725,0.796,3.424,0.982,5.092,0.558c2.522-0.639,4.075-2.447,4.66-5.425
			c0.419-2.209,0.561-5.727,0.424-10.552L257.973,159.137z"/>
		<path fill="#FFFFFF" d="M294.214,170.556l1.112,0.532c-1.403,3.33-2.95,5.871-4.646,7.625c-1.694,1.755-3.701,2.925-6.016,3.512
			c-2.761,0.701-5.209,0.345-7.344-1.073c-2.136-1.415-3.589-3.64-4.358-6.671c-0.779-3.067-0.758-6.382,0.061-9.943
			c0.817-3.562,2.186-6.683,4.098-9.362c1.913-2.68,4.062-4.322,6.447-4.927c1.395-0.354,2.648-0.237,3.76,0.352
			c1.108,0.589,1.829,1.529,2.159,2.824c0.665,2.624-0.102,5.61-2.296,8.959c-2.196,3.352-5.532,6.572-10.007,9.664
			c0.038,0.283,0.098,0.594,0.185,0.934c0.595,2.351,1.729,4.104,3.399,5.256c1.672,1.153,3.529,1.472,5.574,0.952
			c1.601-0.406,3.021-1.302,4.267-2.687C291.853,175.117,293.054,173.134,294.214,170.556z M276.874,170.821
			c3.264-2.569,5.631-5.109,7.095-7.621c0.984-1.698,1.685-3.437,2.105-5.212c0.42-1.773,0.47-3.291,0.15-4.553
			c-0.407-1.602-1.343-2.217-2.808-1.844c-2.215,0.562-4.012,2.877-5.391,6.943C276.646,162.603,276.264,166.698,276.874,170.821z"
			/>
		<path fill="#FFFFFF" d="M319.561,164.125l1.114,0.531c-1.403,3.33-2.952,5.871-4.646,7.626c-1.694,1.753-3.701,2.925-6.018,3.512
			c-2.759,0.7-5.209,0.342-7.343-1.073c-2.137-1.417-3.59-3.641-4.359-6.673c-0.777-3.066-0.756-6.381,0.062-9.942
			c0.817-3.562,2.184-6.683,4.096-9.361c1.913-2.681,4.062-4.323,6.449-4.928c1.395-0.354,2.646-0.237,3.758,0.351
			c1.11,0.59,1.83,1.531,2.159,2.826c0.665,2.624-0.1,5.608-2.296,8.958c-2.196,3.351-5.532,6.572-10.005,9.664
			c0.036,0.282,0.097,0.593,0.184,0.934c0.596,2.35,1.729,4.104,3.398,5.256c1.672,1.153,3.531,1.471,5.574,0.954
			c1.601-0.408,3.021-1.305,4.268-2.689C317.201,168.685,318.4,166.701,319.561,164.125z M302.223,164.388
			c3.264-2.567,5.629-5.107,7.094-7.618c0.983-1.701,1.686-3.438,2.106-5.214c0.419-1.772,0.47-3.292,0.149-4.553
			c-0.406-1.601-1.342-2.215-2.807-1.843c-2.217,0.562-4.012,2.876-5.391,6.943C301.995,156.171,301.61,160.265,302.223,164.388z"/>
	</g>
	<g>
		<path fill="#FFFFFF" d="M212.764,259.825c-1.362,0-2.554-0.16-3.577-0.479c-1.022-0.319-1.896-0.761-2.617-1.322
			c-0.722-0.562-1.296-1.233-1.721-2.014c-0.426-0.781-0.716-1.633-0.87-2.556h3.869c0.142,0.567,0.343,1.098,0.603,1.588
			c0.261,0.491,0.586,0.917,0.977,1.277c0.391,0.361,0.857,0.645,1.402,0.852c0.543,0.208,1.171,0.312,1.88,0.312
			c0.474,0,0.944-0.051,1.411-0.15c0.468-0.102,0.885-0.265,1.252-0.488c0.366-0.225,0.662-0.521,0.887-0.888
			c0.224-0.366,0.337-0.816,0.337-1.349c0-0.674-0.175-1.274-0.523-1.802c-0.349-0.526-0.807-1.005-1.376-1.438
			c-0.567-0.432-1.215-0.831-1.941-1.197c-0.729-0.367-1.471-0.74-2.229-1.118c-0.757-0.379-1.499-0.774-2.227-1.189
			c-0.728-0.413-1.375-0.875-1.943-1.384c-0.567-0.509-1.026-1.083-1.375-1.722s-0.523-1.372-0.523-2.2
			c0-0.898,0.198-1.733,0.594-2.502c0.397-0.77,0.968-1.438,1.714-2.005c0.744-0.567,1.661-1.012,2.75-1.331
			c1.088-0.32,2.324-0.479,3.708-0.479c1.147,0,2.186,0.159,3.115,0.479c0.928,0.319,1.745,0.753,2.449,1.305
			c0.703,0.55,1.298,1.197,1.782,1.943c0.485,0.744,0.858,1.543,1.119,2.395h-3.515c-0.201-0.544-0.434-1.059-0.7-1.544
			c-0.266-0.484-0.599-0.914-0.994-1.286c-0.396-0.373-0.872-0.669-1.429-0.888s-1.219-0.328-1.987-0.328
			c-0.733,0-1.348,0.095-1.846,0.284c-0.497,0.188-0.899,0.432-1.207,0.728c-0.307,0.296-0.529,0.624-0.665,0.984
			c-0.136,0.361-0.204,0.713-0.204,1.056c0,0.616,0.181,1.169,0.541,1.66c0.361,0.49,0.834,0.949,1.42,1.376
			c0.585,0.425,1.254,0.83,2.005,1.215s1.518,0.771,2.299,1.162c0.78,0.391,1.546,0.802,2.297,1.233
			c0.753,0.432,1.42,0.905,2.007,1.42c0.585,0.515,1.058,1.085,1.419,1.712s0.542,1.337,0.542,2.13c0,0.923-0.193,1.783-0.578,2.581
			c-0.384,0.799-0.952,1.492-1.703,2.077c-0.751,0.586-1.68,1.047-2.786,1.384C215.498,259.656,214.219,259.825,212.764,259.825z"/>
		<path fill="#FFFFFF" d="M231.893,248.645v10.825h-5.59v-22.75h5.59v9.973h9.139v-9.973h5.538v22.75h-5.538v-10.825H231.893z"/>
		<path fill="#FFFFFF" d="M263.96,259.984c-1.219,0-2.39-0.137-3.514-0.408c-1.124-0.272-2.166-0.656-3.124-1.153
			s-1.831-1.106-2.617-1.828s-1.458-1.526-2.014-2.413c-0.557-0.888-0.985-1.857-1.287-2.911c-0.302-1.052-0.453-2.164-0.453-3.335
			c0-1.729,0.335-3.308,1.003-4.739c0.669-1.431,1.585-2.661,2.751-3.69s2.54-1.831,4.126-2.404
			c1.585-0.574,3.295-0.861,5.129-0.861c1.833,0,3.54,0.287,5.119,0.861c1.579,0.573,2.952,1.375,4.117,2.404s2.082,2.26,2.751,3.69
			c0.668,1.432,1.003,2.999,1.003,4.702c0,1.811-0.335,3.458-1.003,4.942c-0.669,1.485-1.586,2.758-2.751,3.815
			c-1.165,1.06-2.538,1.879-4.117,2.458S265.793,259.984,263.96,259.984z M263.96,258.05c1.1,0,2.072-0.251,2.918-0.755
			c0.848-0.502,1.557-1.203,2.131-2.103c0.573-0.898,1.009-1.966,1.304-3.202c0.296-1.236,0.443-2.588,0.443-4.055
			c0-1.433-0.147-2.749-0.443-3.949c-0.295-1.2-0.73-2.233-1.304-3.097c-0.574-0.864-1.283-1.535-2.131-2.015
			c-0.846-0.479-1.818-0.718-2.918-0.718c-1.124,0-2.109,0.239-2.955,0.718c-0.846,0.479-1.559,1.15-2.139,2.015
			c-0.579,0.863-1.015,1.896-1.304,3.097c-0.291,1.2-0.435,2.517-0.435,3.949c0,1.467,0.144,2.818,0.435,4.055
			c0.289,1.236,0.725,2.304,1.304,3.202c0.58,0.899,1.293,1.601,2.139,2.103C261.851,257.799,262.836,258.05,263.96,258.05z"/>
		<path fill="#FFFFFF" d="M281.333,236.72h7.933c1.277,0,2.472,0.136,3.584,0.408c1.112,0.271,2.079,0.674,2.902,1.206
			c0.821,0.532,1.469,1.198,1.943,1.996c0.473,0.799,0.709,1.731,0.709,2.796c0,1.076-0.233,2.014-0.7,2.812
			c-0.468,0.799-1.084,1.466-1.847,1.998s-1.636,0.931-2.617,1.197s-1.981,0.399-3,0.399h-3.3v9.938h-5.607V236.72z M286.94,247.474
			h1.828c0.626,0,1.177-0.116,1.65-0.347c0.473-0.23,0.866-0.541,1.18-0.932s0.547-0.843,0.701-1.357
			c0.153-0.515,0.23-1.056,0.23-1.624c0-0.686-0.1-1.292-0.301-1.818s-0.479-0.973-0.835-1.34c-0.354-0.366-0.772-0.645-1.251-0.834
			c-0.479-0.189-0.99-0.284-1.535-0.284h-1.668V247.474z"/>
	</g>
</g>
</svg>
