<?xml version="1.0" encoding="utf-8"?>
<!-- Generator: Adobe Illustrator 16.0.0, SVG Export Plug-In . SVG Version: 6.00 Build 0)  -->
<!DOCTYPE svg PUBLIC "-//W3C//DTD SVG 1.1//EN" "http://www.w3.org/Graphics/SVG/1.1/DTD/svg11.dtd">
<svg version="1.1" id="Objects" xmlns="http://www.w3.org/2000/svg" xmlns:xlink="http://www.w3.org/1999/xlink" x="0px" y="0px"
	 width="239.564px" height="169.676px" viewBox="0 0 239.564 169.676" enable-background="new 0 0 239.564 169.676"
	 xml:space="preserve">
<g>
	<path fill="#B89D64" d="M63.077,111.646c0.724,1.386,1.499,2.693,2.307,3.939c-11.096-0.009-29.924,2.303-34.159,13.852
		c-0.068,0.094-0.13,0.195-0.168,0.328c-0.082,0.271-0.128,0.531-0.19,0.795c-0.016,0.061-0.027,0.121-0.042,0.182
		c-0.042,0.188-0.091,0.379-0.122,0.561c-0.042,0.201-0.095,0.395-0.13,0.598c-0.014,0.08,0.004,0.145,0.038,0.195
		c-0.498,5.104,2.77,8.67,7.536,11.213c8.22,6.266,17.38,10.227,27.026,12.719c-0.113,0.273,0.202,0.627,0.496,0.438
		c0.111-0.07,0.217-0.148,0.33-0.22c7.901,1.969,16.121,2.969,24.42,3.437c0.057,0.196,0.25,0.353,0.494,0.221
		c0.102-0.053,0.199-0.118,0.301-0.174c11.634,0.606,23.407,0.203,34.655-0.004c29.426-0.541,70.47,0.324,92.513-16.162
		c3.088-1.438,5.685-3.371,7.237-6.031c0.29,0.051,0.586-0.049,0.746-0.396c8.857-19.395-28.675-20.704-40.296-20.216
		c1.311-1.634,2.57-3.337,3.71-5.189c14.047-22.821,16.367-54.905,13.352-80.878c-0.007-0.053-0.029-0.091-0.04-0.138
		c0.168,0.064,0.334,0.143,0.505,0.204c0.19,0.071,0.308-0.19,0.188-0.321c-18.156-19.618-53.53-19.48-77.999-20.574
		c-22.793-1.021-57.84-2.254-74.806,16.413c0,0-1.257,0.526-2.072,2.624c-1.471,3.785,0.472,9.912-0.514,13.674
		c-5.968-5.698-14.817-6.427-22.133-2.101c-8.505,5.027-12.486,15.521-13.161,24.934c-2.07,28.861,24.546,42.753,49.29,46.188
		C62.649,111.791,62.873,111.734,63.077,111.646z M49.27,61.036c-8.785-5.94-22.138-7.627-22.711,6.557
		c-0.74,18.312,14.108,25.972,30.063,28.548c1.525,4.477,3.268,8.859,5.277,13.104c-16.688-2.473-34.214-8.503-42.64-24.347
		c-4.983-9.369-5.063-21.58-0.72-31.145c5.247-11.551,19.171-19.115,29.782-8.346c0.033,0.033,0.066,0.042,0.102,0.071
		C48.49,50.648,48.771,55.852,49.27,61.036z M55.897,93.997c-10.135-2.741-22.089-5.649-25.715-16.892
		c-2.01-6.231-2.351-15.279,4.883-18.33c4.651-1.959,10.56,2.705,14.306,5.076c0.071,0.047,0.137,0.053,0.206,0.082
		C50.73,74.164,52.774,84.299,55.897,93.997z M104.047,27.078c0.018-0.016,0.036-0.033,0.053-0.049 M103.071,27.138
		c-13.285,0.879-26.422,3.312-38.792,8.419c-0.724,0.299-0.879,1.076-0.651,1.639c-3.969-2.349-7.438-5.477-10.033-9.765
		c-0.031-0.052-0.069-0.082-0.102-0.124C71.259,9.33,106.46,11.458,129.427,12.645c14.031,0.726,28.392,1.19,42.06,4.693
		c10.606,2.716,19.539,8.419,29.408,12.494c-0.015,0.014-0.033,0.016-0.051,0.031c-3.5,3.42-7.613,5.855-12.041,7.678
		c-0.009-0.005-0.013-0.012-0.022-0.016c-17.598-8.824-40.181-9.336-59.494-10.414c-2.01-0.11-4.029-0.194-6.05-0.261
		c-0.066-0.111-0.215-0.171-0.323-0.056c-0.013,0.014-0.026,0.029-0.04,0.042c-5.118-0.164-10.258-0.166-15.386,0.042
		 M72.795,39.713c-0.354,0.398-0.604,0.759-0.804,1.157c-0.447-0.144-0.872-0.325-1.312-0.48c2.922-1.802,5.607-4.276,8.087-6.734
		c1.078-0.257,2.156-0.514,3.239-0.746c-3.055,2.712-6.154,5.369-9.292,7.99c0.14-0.295,0.299-0.58,0.525-0.844
		C73.422,39.79,73.006,39.478,72.795,39.713z M84.338,43.17c-0.12,0.182-0.239,0.365-0.359,0.55
		c-0.729-0.122-1.457-0.255-2.185-0.39c5.187-4.016,10.122-8.397,14.915-12.878c1.007-0.115,2.015-0.234,3.024-0.332
		c-4.977,4.443-9.962,8.875-14.925,13.331c0-0.002,0.002-0.004,0.002-0.004C84.958,43.131,84.533,42.871,84.338,43.17z
		 M182.246,39.77c-0.841,0.237-1.698,0.435-2.548,0.646c0.974-1.026,1.839-2.158,2.592-3.276c0.673,0.237,1.35,0.468,2.012,0.722
		C183.627,38.511,182.96,39.163,182.246,39.77z M184.714,38.021c0.467,0.184,0.941,0.352,1.404,0.542
		c-0.828,0.29-1.665,0.56-2.508,0.817C184.03,38.934,184.399,38.478,184.714,38.021z M179.084,40.145
		c-0.23,0.221-0.487,0.407-0.731,0.613c-1.076,0.25-2.158,0.442-3.239,0.664c0.514-0.428,1.021-0.854,1.515-1.275
		c1.062-0.898,2.121-1.822,3.092-2.818c0.299-0.308,0.574-0.494,0.673-0.823c0.474,0.155,0.95,0.299,1.419,0.462
		C180.986,38.097,180.098,39.172,179.084,40.145z M173.671,41.716c-1.051,0.206-2.081,0.372-3.128,0.564
		c0.259-0.323,0.511-0.631,0.744-0.872c1.919-1.997,3.917-3.914,5.911-5.836c0.885,0.257,1.789,0.477,2.663,0.758
		c0.002,0.013-0.013,0.026-0.007,0.037c0.018,0.029,0.036,0.058,0.051,0.087c0.044,0.075,0.108,0.084,0.17,0.07
		c-0.682,0.863-4.235,3.584-4.638,3.903C174.867,40.881,174.265,41.295,173.671,41.716z M169.722,42.216
		c-0.075,0.075-0.155,0.167-0.235,0.255c-0.832,0.15-1.656,0.297-2.488,0.449c2.52-2.513,4.833-5.3,7.007-8.021
		c0.036-0.044,0.046-0.091,0.042-0.137c0.919,0.236,1.851,0.44,2.758,0.699c-1.516,1.312-2.991,2.67-4.425,4.075
		C171.482,40.416,170.594,41.311,169.722,42.216z M165.547,43.182c-0.257,0.044-0.52,0.098-0.772,0.14
		c-0.596,0.1-1.195,0.17-1.793,0.266c3.206-2.902,6.186-6.115,9.085-9.28c0.542,0.128,1.098,0.232,1.641,0.369
		C171.13,37.676,168.314,40.395,165.547,43.182z M161.518,43.804c-0.974,0.15-1.952,0.261-2.929,0.4
		c3.522-3.301,6.768-7.056,9.934-10.646c0.983,0.203,1.975,0.387,2.946,0.612C168.239,37.479,164.832,40.592,161.518,43.804z
		 M157.248,44.388c-0.804,0.111-1.609,0.195-2.413,0.297c3.801-3.692,7.385-7.702,10.903-11.649c0.746,0.138,1.497,0.26,2.236,0.408
		C164.402,37.052,160.619,40.594,157.248,44.388z M153.63,44.835c-0.666,0.082-1.333,0.145-1.999,0.222
		c4.116-3.907,7.923-8.279,11.744-12.42c0.551,0.094,1.105,0.171,1.654,0.271C161.226,36.865,157.305,40.762,153.63,44.835z
		 M150.042,45.233c-1.103,0.124-2.209,0.224-3.314,0.335c4.549-4.389,8.968-8.946,13.413-13.427
		c0.895,0.133,1.793,0.259,2.686,0.405C158.596,36.764,154.115,40.857,150.042,45.233z M145.207,45.721
		c-0.697,0.064-1.395,0.117-2.092,0.177c4.576-4.503,8.829-9.471,13.094-14.254c1.098,0.139,2.201,0.243,3.294,0.402
		C154.646,36.469,149.771,40.983,145.207,45.721z M141.777,46.011c-1.182,0.098-2.369,0.152-3.553,0.234
		c4.937-4.786,9.597-9.942,14.252-15.012c0.972,0.106,1.944,0.19,2.914,0.311C150.783,36.252,146.003,40.968,141.777,46.011z
		 M137.192,46.312c-1.009,0.064-2.021,0.111-3.033,0.164c5.222-4.893,10.117-10.159,14.782-15.585
		c0.963,0.093,1.924,0.17,2.887,0.274C146.867,36.113,141.819,41.069,137.192,46.312z M132.885,46.547
		c-0.671,0.03-1.342,0.037-2.015,0.066c5.147-4.908,10.06-10.262,14.164-16.06c1.063,0.089,2.123,0.171,3.188,0.271
		C143.283,36.241,138.127,41.417,132.885,46.547z M129.188,46.659c-0.055-0.332-0.469-0.23-0.556,0.026
		c-0.999,0.031-1.999,0.089-3,0.098h-0.024c5.501-5.284,10.761-10.848,15.897-16.486c0.923,0.068,1.835,0.115,2.763,0.19
		c-2.263,2.757-4.485,5.539-6.883,8.187c-1.47,1.623-2.978,3.21-4.521,4.762C132.477,43.826,129.203,46.766,129.188,46.659z
		 M124.146,46.785c-0.932,0.003-1.866-0.006-2.8-0.013c6.099-4.913,11.581-10.715,16.604-16.71c0.853,0.058,1.693,0.104,2.55,0.164
		c-2.515,2.652-5.03,5.302-7.584,7.912c-1.579,1.613-3.164,3.219-4.76,4.812C127.499,43.606,124.784,45.579,124.146,46.785z
		 M119.905,46.766c-0.994-0.011-1.988-0.06-2.982-0.082c3.737-3.673,7.452-7.365,11.162-11.064c0.999-0.996,1.997-1.992,2.991-2.991
		c0.532-0.535,2.374-1.99,2.863-2.813c1.002,0.062,1.999,0.117,3.006,0.184C131.649,36.02,125.88,41.408,119.905,46.766z
		 M115.599,46.646c-0.961-0.024-1.921-0.082-2.882-0.12c2.98-1.562,5.973-5.034,8.269-7.064c3.509-3.105,6.938-6.349,10.119-9.8
		c0.749,0.042,1.479,0.072,2.231,0.117c-1.126,1.098-3.316,2.758-3.838,3.266c-1.519,1.472-3.031,2.95-4.545,4.427
		C121.827,40.521,118.703,43.575,115.599,46.646z M111.543,46.409c0.117-0.312-0.341-0.569-0.556-0.325l-0.135,0.152
		c-0.056,0.064-0.089,0.135-0.1,0.211c-2.247-0.103-4.492-0.232-6.737-0.393c0.398-0.234,0.706-0.432,0.629-0.383
		c0.998-0.629,1.881-1.609,2.76-2.389c1.822-1.613,3.606-3.27,5.355-4.963c1.921-1.866,3.805-3.772,5.632-5.732
		c0.664-0.712,1.319-1.434,1.968-2.16c0.071-0.077,0.412-0.587,0.793-1.158c1.479,0.031,2.953,0.043,4.438,0.104
		c0.224,0.009,0.456,0.024,0.682,0.035c-2.225,2.464-5.089,4.536-7.513,6.661c-3.234,2.834-6.688,5.493-9.768,8.49
		c-0.248,0.241,0.091,0.699,0.376,0.487c3.675-2.698,7.013-5.933,10.387-8.997c2.245-2.037,5.067-4.106,7.016-6.615
		c1.277,0.062,2.563,0.131,3.856,0.202c-2.874,2.371-5.641,5.2-8.477,7.722c-1.731,1.541-3.491,3.048-5.282,4.521
		C115.479,43.024,112.186,44.676,111.543,46.409z M102.872,45.96c-0.791-0.06-1.576-0.133-2.364-0.199
		c6.161-5.03,12.085-10.518,17.308-16.504c0.923,0.004,1.844-0.016,2.771,0c-2.896,3.077-5.798,6.139-8.886,9.034
		c-1.955,1.833-3.952,3.62-5.988,5.359C104.845,44.388,103.693,45.085,102.872,45.96z M99.502,45.546
		c-0.024,0.026-0.057,0.077-0.09,0.122c-0.935-0.085-1.866-0.202-2.801-0.297c5.991-4.771,11.72-10.427,16.838-16.055
		c1.2-0.022,2.397-0.06,3.602-0.06c-2.979,3.006-5.933,6.032-9.048,8.908c-1.837,1.698-3.708,3.358-5.614,4.979
		C101.459,43.935,100.304,44.641,99.502,45.546z M95.469,45.249c-0.713-0.075-1.423-0.168-2.136-0.248
		c5.762-5.096,11.437-10.303,17.028-15.58c0.768-0.027,1.534-0.073,2.302-0.091C106.877,34.501,100.97,39.779,95.469,45.249z
		 M92.372,44.889c-0.144-0.016-0.288-0.033-0.43-0.049c-0.093-0.087-0.224-0.108-0.35-0.042c-0.859-0.104-1.713-0.244-2.572-0.356
		c5.324-4.687,11.306-9.406,16.116-14.749c1.435-0.091,2.872-0.181,4.315-0.238c-3.168,2.827-6.321,5.667-9.484,8.498
		c-1.922,1.718-3.841,3.44-5.765,5.158C93.641,43.611,93.014,44.284,92.372,44.889z M88.812,43.484
		c-0.11-0.199-0.418-0.285-0.533-0.028c-0.124,0.276-0.248,0.554-0.374,0.83c-0.777-0.108-1.554-0.215-2.333-0.325
		c5.284-4.47,10.427-9.154,15.428-13.947c1.043-0.093,2.088-0.192,3.135-0.264C99.398,34.641,93.809,38.924,88.812,43.484z
		 M80.833,43.144c-0.536-0.104-1.069-0.236-1.605-0.352c4.485-3.659,8.795-7.578,12.818-11.74c1.18-0.173,2.36-0.334,3.542-0.478
		C90.736,34.844,85.777,38.976,80.833,43.144z M78.197,42.566c-0.811-0.184-1.612-0.395-2.416-0.603
		c4.288-2.902,8.18-6.56,11.877-10.168c1.039-0.182,2.075-0.39,3.115-0.549C86.671,35.123,82.503,38.906,78.197,42.566z
		 M75.016,41.773c-0.509-0.137-1.009-0.295-1.514-0.442c3.425-2.776,6.728-5.708,9.954-8.714c1.022-0.21,2.041-0.432,3.066-0.62
		C82.78,35.378,78.806,38.455,75.016,41.773z M69.805,40.068c-0.352-0.133-0.695-0.283-1.045-0.42
		c0.999-0.828,1.943-1.74,2.875-2.595c0.755-0.693,1.499-1.395,2.236-2.105c1.069-0.297,2.137-0.615,3.208-0.883
		C74.664,36.084,72.16,37.981,69.805,40.068z M67.861,39.285c-0.489-0.203-0.972-0.416-1.452-0.636
		c0.896-0.724,1.764-1.485,2.608-2.277c1.131-0.354,2.265-0.697,3.4-1.025c-0.343,0.316-0.671,0.646-1.019,0.956
		C70.263,37.314,69.01,38.258,67.861,39.285z M199.095,151.129c2.072-1.466,4.184-2.83,6.422-4.066
		c1.733-0.274,3.513-0.599,5.275-1.008C207.036,148.104,203.115,149.747,199.095,151.129z M193.43,152.866
		c2.608-1.685,5.165-3.47,7.735-5.198c0.935-0.117,1.893-0.243,2.887-0.387c-2.316,1.187-4.521,2.646-6.467,4.355
		C196.212,152.08,194.827,152.488,193.43,152.866z M188.27,154.084c2.986-1.973,5.959-3.973,8.959-5.924
		c0.901-0.115,1.869-0.232,2.9-0.361c-2.865,1.812-5.761,3.606-8.55,5.528C190.483,153.602,189.378,153.848,188.27,154.084z
		 M177.397,155.859c3.157-2.006,6.19-4.215,9.116-6.549c3.206-0.289,6.405-0.617,9.59-1.021c-3.21,1.902-6.387,3.914-9.397,6.117
		c-1.081,0.219-2.167,0.414-3.259,0.603c2.771-1.676,5.408-3.69,7.896-5.637c0.21-0.164-0.084-0.454-0.292-0.292
		c-2.971,2.296-6.146,4.188-9.274,6.195C180.329,155.508,178.861,155.676,177.397,155.859z M162.866,157.079
		c3.382-2.101,6.606-4.527,9.831-6.88c0.988-0.055,1.977-0.088,2.964-0.146c-3.031,2.059-6.147,3.998-9.072,6.189
		c-0.286,0.215-0.047,0.65,0.283,0.486c3.604-1.805,6.978-4.287,10.23-6.759c1.065-0.065,2.134-0.104,3.197-0.18
		c-3.135,1.978-6.268,3.959-9.298,6.079c-0.29,0.203-0.031,0.669,0.281,0.482c3.544-2.107,6.985-4.396,10.427-6.67
		c1.222-0.094,2.444-0.174,3.662-0.279c-3.093,2.303-6.268,4.48-9.468,6.652C171.597,156.555,167.238,156.871,162.866,157.079z
		 M159.242,157.193c0.752-0.57,1.443-1.164,1.899-1.463c2.743-1.793,5.486-3.588,8.231-5.381c0.626-0.031,1.257-0.05,1.884-0.08
		c-3.232,2.19-6.502,4.379-9.495,6.852C160.922,157.156,160.081,157.166,159.242,157.193z M154.181,157.311
		c3.896-2.197,7.722-4.527,11.563-6.812c0.741-0.031,1.483-0.055,2.225-0.089l-5.525,3.56c-0.37,0.237-3.12,2.088-4.855,3.272
		C156.453,157.275,155.317,157.285,154.181,157.311z M146.382,157.413c3.531-1.845,6.852-4.146,9.98-6.603
		c1.191-0.039,2.38-0.069,3.571-0.111c-3.354,1.951-6.719,3.892-10.015,5.938c-0.354,0.219-0.04,0.76,0.323,0.557
		c3.768-2.104,7.463-4.342,11.173-6.545c0.997-0.035,1.99-0.058,2.987-0.098c-3.868,2.227-7.762,4.428-11.552,6.785
		C150.69,157.374,148.534,157.396,146.382,157.413z M140.85,157.441c3.642-1.979,7.155-4.254,10.664-6.478
		c1.311-0.042,2.617-0.08,3.927-0.124c-1.521,1.115-3.064,2.198-4.656,3.208c-1.777,1.122-4.069,2.022-5.645,3.373h-0.036
		c0.157-0.203-0.11-0.54-0.338-0.376c-0.264,0.189-0.392,0.268-0.447,0.381C143.157,157.434,142.01,157.438,140.85,157.441z
		 M135.847,157.469c3.502-2.066,6.969-4.201,10.429-6.338c1.211-0.038,2.413-0.08,3.624-0.117
		c-3.491,2.055-7.011,4.106-10.296,6.437C138.346,157.453,137.1,157.462,135.847,157.469z M130.903,157.512
		c0.79-0.582,1.525-1.154,2.112-1.521c2.42-1.51,4.799-3.086,7.177-4.662c1.618-0.051,3.23-0.109,4.848-0.157
		c-3.58,2.069-7.16,4.144-10.682,6.306c-0.033,0.002-0.064,0.002-0.097,0.002c0.015-0.074,0.033-0.145,0.048-0.217
		c0.084-0.396-0.476-0.55-0.606-0.169c-0.044,0.128-0.086,0.259-0.128,0.388C132.676,157.486,131.797,157.502,130.903,157.512z
		 M125.101,157.582c3.582-1.99,7.082-4.146,10.704-6.07c0.022-0.012,0.02-0.031,0.038-0.045c0.908-0.025,1.815-0.06,2.725-0.086
		c-1.492,0.973-2.973,1.959-4.483,2.906c-1.661,1.043-3.885,2.027-5.645,3.25c-0.855,0.012-1.725,0.014-2.573,0.029
		C125.612,157.57,125.355,157.577,125.101,157.582z M121.537,157.65c2.778-1.946,5.517-3.961,8.233-5.986
		c1.426-0.049,2.856-0.094,4.284-0.137c-3.65,1.828-7.358,3.771-10.706,6.088C122.745,157.626,122.139,157.641,121.537,157.65z
		 M114.552,157.783c3.254-1.561,6.3-3.688,9.156-5.906c1.676-0.061,3.352-0.117,5.023-0.18c0.046-0.002,0.093-0.002,0.14-0.004
		c-2.911,1.949-5.816,3.923-8.643,5.982C118.344,157.715,116.449,157.752,114.552,157.783z M112.467,157.814
		c2.428-1.866,4.802-3.807,7.12-5.801c1.027-0.035,2.057-0.063,3.086-0.101c-3,2.104-6.141,3.914-9.243,5.887
		C113.111,157.809,112.788,157.811,112.467,157.814z M107.807,157.859c2.743-1.645,5.391-3.735,7.883-5.627
		c0.04-0.03,0.046-0.07,0.066-0.107c0.979-0.029,1.959-0.051,2.938-0.082c-2.427,1.979-4.899,3.891-7.388,5.787
		C110.142,157.846,108.973,157.854,107.807,157.859z M102.965,157.863c2.856-1.731,5.608-3.704,8.349-5.631
		c1.142-0.025,2.282-0.049,3.424-0.08c-2.776,1.75-5.727,3.582-8.213,5.715C105.34,157.872,104.152,157.869,102.965,157.863z
		 M98.761,157.803c2.674-1.68,5.242-3.65,7.79-5.486c1.151-0.017,2.302-0.029,3.454-0.055c-2.847,1.782-5.716,3.573-8.368,5.588
		C100.678,157.841,99.72,157.823,98.761,157.803z M94.604,157.682c2.515-1.643,4.923-3.472,7.261-5.326
		c1.107-0.004,2.211-0.006,3.316-0.019c-2.725,1.722-5.512,3.456-8.025,5.429C96.304,157.743,95.454,157.712,94.604,157.682z
		 M89.519,157.43c2.468-1.625,4.873-3.377,7.263-5.09c1.287,0.014,2.573,0.021,3.859,0.021c-2.5,1.826-5.065,3.533-7.633,5.256
		C91.843,157.564,90.681,157.502,89.519,157.43z M85.339,157.098c2.495-1.436,4.868-3.15,7.157-4.854
		c1.058,0.023,2.119,0.068,3.179,0.084c-2.528,1.611-5.047,3.268-7.487,5.013C87.234,157.273,86.289,157.18,85.339,157.098z
		 M80.761,156.623c2.34-1.293,4.527-2.885,6.59-4.564c1.277,0.051,2.555,0.115,3.832,0.15c-2.433,1.646-4.939,3.163-7.403,4.755
		C82.769,156.867,81.766,156.74,80.761,156.623z M76.076,155.997c2.088-1.472,4.171-2.907,6.38-4.198
		c1.24,0.076,2.479,0.155,3.721,0.211c-2.218,1.631-4.541,3.057-6.914,4.445C78.197,156.32,77.137,156.158,76.076,155.997z
		 M72.18,155.337c0.146-0.149,0.292-0.292,0.436-0.416c0.759-0.646,1.547-1.255,2.369-1.819c0.892-0.615,1.829-1.153,2.781-1.66
		c1.056,0.086,2.109,0.201,3.166,0.271c-2.119,1.193-4.162,2.553-6,4.115C74.011,155.678,73.094,155.508,72.18,155.337z
		 M68.487,154.58c1.782-1.205,3.566-2.4,5.426-3.507c0.81,0.077,1.62,0.173,2.431,0.243c-0.779,0.439-1.545,0.912-2.283,1.428
		c-0.622,0.436-1.226,0.893-1.813,1.375c-0.398,0.328-0.772,0.68-1.165,1.017C70.216,154.963,69.351,154.773,68.487,154.58z
		 M64.81,153.645c1.515-0.918,3.015-1.854,4.574-2.696c0.155-0.087,0.182-0.22,0.164-0.351c1.038,0.121,2.077,0.241,3.117,0.351
		c-1.846,1.009-3.701,2.101-5.413,3.347C66.431,154.102,65.625,153.857,64.81,153.645z M61.324,152.625
		c1.412-0.886,2.82-1.771,4.306-2.548c0.992,0.144,1.983,0.292,2.978,0.414c-1.665,0.866-3.325,1.784-4.859,2.868
		C62.933,153.134,62.131,152.873,61.324,152.625z M58.284,151.627c1.005-0.618,1.959-1.426,2.871-2.207
		c1.138,0.168,2.183,0.318,3.062,0.458c-1.35,0.71-2.663,1.513-3.854,2.457C59.666,152.113,58.977,151.865,58.284,151.627z
		 M55.734,150.701c0.695-0.355,1.321-0.854,1.881-1.395c0.137-0.134,0.14-0.283,0.098-0.422c0.739,0.12,1.483,0.239,2.169,0.344
		c-0.883,0.646-1.751,1.33-2.444,2.109C56.867,151.139,56.3,150.916,55.734,150.701z M54.636,150.285
		c-0.534-0.213-1.058-0.458-1.59-0.686c0.609-0.467,1.247-0.867,1.951-1.175c0.622,0.11,1.246,0.224,1.846,0.323
		C56.163,149.361,55.406,149.807,54.636,150.285z M46.719,146.584c2.269,0.631,4.569,1.135,6.785,1.561
		c-0.511,0.295-0.983,0.648-1.417,1.045C50.272,148.393,48.475,147.547,46.719,146.584z M66.827,117.684
		c13.209,17.992,35.866,20.211,58.183,21.236c22.131,1.016,45.823-3.835,60.328-21.12c10.972,1.372,40.805,0.808,39.848,16.474
		c-0.365,0.93-0.859,1.789-1.45,2.591c-1.904,1.727-3.868,3.312-5.889,4.764c-7.613,3.976-19.205,5.118-28.729,5.565
		c0.124-0.104,0.254-0.207,0.378-0.311c0.263-0.22-0.113-0.585-0.374-0.375c-0.308,0.251-0.626,0.483-0.939,0.729
		c-4.505,0.195-8.49,0.244-11.275,0.384c-14.808,0.744-29.638,1.146-44.453,1.69c-13.666,0.508-105.056,5.371-99.524-19.028
		c0.108-0.482-0.11-0.845-0.432-1.041C39.04,119.111,56.389,118.355,66.827,117.684z M148.452,47.908
		c4.961-0.503,9.913-1.099,14.834-1.891c0.1,0.051,0.219,0.068,0.332-0.022c0.016-0.013,0.029-0.026,0.044-0.04
		c1.208-0.197,2.417-0.387,3.62-0.6c12.087-2.143,25.237-4.232,34.121-13.312c0.128,2.462,0.197,4.954,0.239,7.456
		c-3.128,0.312-6.332,0.264-9.422,0.73c-0.417,0.062-0.261,0.645,0.09,0.678c3.035,0.292,6.301-0.229,9.34-0.636
		c0.022,1.503,0.046,3.004,0.046,4.514c-3.779-0.108-7.784-0.247-11.514,0.419c-0.394,0.068-0.285,0.678,0.091,0.678
		c3.803,0.006,7.609-0.43,11.421-0.435c-0.002,1.632,0.022,3.257-0.016,4.893c-1.594,0.058-3.19,0.115-4.786,0.177
		c-0.292,0.012-5.838,0.169-5.654-0.203c0.153-0.311-0.21-0.585-0.472-0.361c-0.108,0.094-0.217,0.187-0.325,0.279
		c-0.102,0.086-0.135,0.252-0.1,0.376c0.423,1.471,2.101,0.938,3.336,0.87c2.661-0.146,5.322-0.303,7.983-0.463
		c-0.028,1.136-0.048,2.27-0.095,3.407c-1.787,0.129-3.576,0.257-5.364,0.388c-1.193,0.086-4.326-0.248-5.346,0.487
		c0.378-0.272,0.06-0.809-0.363-0.62c-0.088,0.04-0.179,0.08-0.268,0.117c-0.12,0.053-0.195,0.213-0.193,0.337l0.007,0.339
		c0.002,0.144,0.077,0.296,0.21,0.367c1.255,0.653,3.224,0.035,4.574-0.075c2.234-0.184,4.468-0.37,6.701-0.554
		c-0.08,1.828-0.162,3.657-0.292,5.486c-3.374,0.432-6.575,0.152-9.986,0.274c-0.37,0.013-0.447,0.54-0.089,0.644
		c3.095,0.896,6.746,0.547,10.002-0.02c-0.128,1.665-0.226,3.334-0.403,4.994c-3.028,0.058-6.336,0.071-9.187,0.877
		c-0.332,0.095-0.248,0.562,0.08,0.582c2.931,0.173,6.043-0.334,9.021-0.629c-0.177,1.603-0.376,3.203-0.604,4.798
		c-2.909-0.202-5.904-0.573-8.795-0.388c-0.339,0.02-0.458,0.564-0.084,0.626c2.852,0.461,5.855,0.396,8.765,0.474
		c-0.237,1.61-0.487,3.217-0.782,4.813c-3.079-0.374-6.313-0.578-9.322-0.071c-0.392,0.066-0.27,0.648,0.089,0.662
		c3.042,0.115,6.048,0.016,9.081,0.175c-0.286,1.506-0.565,3.013-0.903,4.503c-2.978-0.108-5.942-0.522-8.911-0.529
		c-0.332-0.002-0.405,0.503-0.08,0.582c2.818,0.678,5.893,0.665,8.835,0.641c-1.423,6.118-3.298,12.101-5.762,17.83
		c-3.786,0.256-7.405-0.136-11.171-0.445c-0.394-0.03-0.463,0.591-0.093,0.681c3.529,0.84,7.326,0.795,10.934,0.514
		c-0.564,1.279-1.145,2.548-1.767,3.801c-0.144,0.288-0.303,0.551-0.452,0.832c-1.08-0.646-2.922-0.018-4.113,0.043
		c-2.181,0.107-4.365-0.08-6.542,0.037c-0.31,0.016-0.41,0.5-0.075,0.564c1.64,0.311,3.316,0.291,4.981,0.24
		c0.819-0.025,1.636-0.072,2.453-0.14c0.294-0.022,1.884-0.36,2.644-0.427c-0.157,0.102-0.244,0.306-0.064,0.474
		c0.044,0.042,0.086,0.082,0.131,0.124c0.02,0.02,0.049,0.02,0.071,0.033c-0.645,1.152-1.311,2.275-2.017,3.354
		c-3.841-0.078-7.675-0.312-11.514-0.378c-0.385-0.007-0.363,0.54,0,0.58c3.668,0.418,7.425,0.433,11.131,0.356
		c-2.267,3.361-4.826,6.356-7.677,8.945c-4.012-0.106-8.134,0.039-12.063,0.703c-0.363,0.062-0.274,0.66,0.086,0.639
		c3.739-0.227,7.452-0.489,11.186-0.65c-1.023,0.89-2.067,1.751-3.15,2.552c-3.695,0.548-7.4,0.798-11.106,1.238
		c-0.312,0.037-0.332,0.493,0,0.5c3.334,0.067,6.69-0.386,9.986-0.968c-1.64,1.146-3.327,2.226-5.085,3.188
		c-0.801,0.068-1.667,0.046-2.373,0.115c-2.243,0.214-4.492,0.398-6.724,0.708c-0.367,0.053-0.276,0.671,0.089,0.646
		c2.495-0.179,5.074-0.382,7.611-0.707c-12.627,6.469-27.834,8.467-42.502,7.795c-12.247-0.564-25.563-1.44-37.25-5.359
		c-14.937-5.01-22.415-18.148-27.407-32.188c-7.945-22.341-10.624-46.198-9.035-69.784c0.146,0,0.294-0.04,0.438-0.115
		c12.897,21.064,48.752,20.084,70.098,20.205c6.954,0.04,13.907-0.266,20.841-0.823 M143.834,48.317
		c1.233-0.104,2.466-0.197,3.697-0.318"/>
	<path fill="#B89D64" d="M170.827,116.009c3.91-0.409,7.981-0.114,11.875,0.354c0.237,0.027,0.325,0.303,0.122,0.447
		c-0.575,0.399-0.374,0.336-1.076,0.317c-0.259-0.007-0.259-0.39,0-0.401c-3.325,0.16-7.383-0.053-10.921-0.16
		C170.461,116.557,170.477,116.044,170.827,116.009z"/>
	<path fill="#B89D64" d="M182.405,97.052c3.416-0.032,6.819,0.214,10.239,0.099c0.427-0.015,0.425,0.642,0,0.662
		c-3.412,0.164-6.927,0.312-10.319-0.166C181.98,97.598,182.075,97.057,182.405,97.052z"/>
	<path fill="#B89D64" d="M183.771,91.879c3.615-0.162,7.288,0.199,10.918,0.133c0.456-0.01,0.445,0.668,0,0.701
		c-3.566,0.252-7.479,0.477-10.998-0.234C183.341,92.407,183.441,91.895,183.771,91.879z"/>
	<path fill="#B89D64" d="M184.805,88.061c3.675-0.442,7.589-0.25,11.262,0.154c0.35,0.039,0.37,0.573,0,0.564
		c-3.748-0.092-7.521-0.006-11.262-0.162C184.439,88.602,184.457,88.102,184.805,88.061z"/>
</g>
<path fill="#B89D64" d="M188.179,38.879c0,0-27.452,18.432-96.446,8.915C60.675,43.51,61.517,37.256,61.517,37.256
	s3.074-7.402,50.977-8.807C160.395,27.044,178.904,35.661,188.179,38.879z"/>
</svg>
