<?xml version="1.0" encoding="utf-8"?>
<!-- Generator: Adobe Illustrator 16.0.0, SVG Export Plug-In . SVG Version: 6.00 Build 0)  -->
<!DOCTYPE svg PUBLIC "-//W3C//DTD SVG 1.1//EN" "http://www.w3.org/Graphics/SVG/1.1/DTD/svg11.dtd">
<svg version="1.1" id="Objects" xmlns="http://www.w3.org/2000/svg" xmlns:xlink="http://www.w3.org/1999/xlink" x="0px" y="0px"
	 width="239.564px" height="169.676px" viewBox="334.564 0 239.564 169.676" enable-background="new 334.564 0 239.564 169.676"
	 xml:space="preserve">
<g>
	<g>
		<path fill="#B89D64" d="M563.663,23.159c-3.086-5.364-10.101-7.078-15.748-8.026c-5.064-0.849-10.617-1.067-15.937-0.28
			c-0.277-0.231-0.649-0.336-1.011-0.167c-0.356,0.172-0.658,0.353-0.983,0.53c-2.768,0.553-5.454,1.37-7.931,2.579
			c-8.744-3.236-18.417-3.919-26.767-0.918c-13.865-5.996-29.443-7.166-43.229-0.99c-1.661-0.896-3.377-1.646-5.155-2.198
			c-6.442-1.997-12.457-0.333-18.179,2.862c-7.047,3.938-13.556,7.902-21.067,10.977c-12.781,5.23-24.337,13.83-22.837,28.993
			c-0.14,0.43-0.253,0.869-0.342,1.317c-1.289,2.921-1.856,5.989-1.125,8.757c-5.621,4.116-9.184,10.787-10.446,17.614
			c-0.263,1.42-0.488,3.334-0.532,5.357c-0.674,3.041-0.668,6.174-1.53,9.188c-0.281,0.982-0.753,1.889-1.262,2.775
			c-3.557,3.271-6.229,8.229-8.001,11.85c-3.625,7.411-10.386,20.316-6.197,28.876c6.625,16.634,30.492,16.956,45.137,13.177
			c6.179-1.598,12.429-4.519,18.814-5.024c0.381-0.03,0.75-0.013,1.119,0c0.812,1.392,2.083,2.663,3.023,3.428
			c3.543,2.884,8.311,3.69,12.743,3.421c4.005-0.242,9.816-1.438,14.676-3.811c2.11-0.743,4.112-1.729,5.842-3.031
			c1.325-0.273,2.643-0.641,3.958-1.008c8.871-0.482,17.464-5.405,25.227-11.492c6.937-4.43,13.319-9.686,19.111-15.575
			c4.976-5.062,9.457-10.603,13.548-16.416c5.662-7.052,10.609-14.922,13.255-23.2c0.919-2.286,1.696-4.643,2.181-7.003
			c0.081-0.178,0.161-0.356,0.246-0.531c0.542-1.105,1.12-2.189,1.66-3.294c0.393-0.496,0.751-1.024,1.126-1.537
			c2.474-2.503,4.38-5.667,5.802-9.021c0.911-1.667,1.666-3.629,2.556-5.391c0.629-0.815,1.303-1.587,1.987-2.347
			c2.049-0.715,4.141-1.881,6.141-3.361c5.248-2.668,11.346-8.592,10.926-14.757C565.812,31.259,565.831,26.925,563.663,23.159z
			 M530.886,18.215c0.036-0.024,0.072-0.051,0.109-0.077c9.212-1.32,19.18-1.854,26.692,3.501c7.141,5.087,3.73,14.317-0.343,20.252
			c-1.843,2.688-4.044,4.705-6.438,6.532c-0.54,0.228-1.072,0.465-1.633,0.646c-0.093-0.102-0.143-0.228-0.271-0.304
			c-2.312-1.358-2.245-6.739-3.067-9.156c-0.661-1.947-1.658-3.812-2.811-5.538c-0.472-0.798-0.997-1.581-1.58-2.349
			c-2.443-3.216-5.53-6.069-9.014-8.48C531.088,21.761,530.155,20.113,530.886,18.215z M536.203,30.982
			c11.068,11.349,6.495,25.903-1.118,37.568c-0.188,0.188-0.372,0.381-0.544,0.575c-0.069-0.864-0.171-1.723-0.37-2.564
			c-1.746-20.542-16.837-38.896-35.774-48.247C512.387,17.931,525.901,20.424,536.203,30.982z M394.996,37.475
			c4.945-4.263,11.296-6.417,17.247-8.853c11.516-4.713,23.189-17.2,36.274-11.387c11.752,5.222,20.4,19.162,26.773,29.813
			c3.716,6.208,6.912,12.733,9.589,19.456c2.795,7.019,6.991,16.148,5.115,23.83c-13.523-4.002-22.375-13.609-32.702-22.684
			c-10.224-8.984-21.594-18.588-34.682-23.018c-9.743-3.296-21.384-3.418-29.992,2.888c-0.591,0.434-1.197,0.957-1.804,1.521
			c-1.473,0.993-2.785,2.174-3.846,3.52C387.963,46.806,390.454,41.395,394.996,37.475z M398.414,50.666
			c-2.469,0.166-4.997,0.719-7.248,1.715c0.765-0.814,1.564-1.582,2.43-2.26c6.894-3.355,16.562-2.813,23.703-0.451
			c9.4,3.109,16.434,10.033,23.608,16.513c7.346,6.634,15.231,13.025,23.846,17.982c-14.053-6.907-26.949-17.599-39.629-25.351
			C417.114,53.919,407.996,50.014,398.414,50.666z M419.369,59.767c-0.346-0.132-0.692-0.265-1.046-0.375
			c-2.945-1.32-6.092-2.35-9.234-3.117c-3.812-1.419-7.917-2.358-11.921-2.042c-0.281-0.025-0.562-0.048-0.841-0.064
			c5.508-0.418,12.02,0.959,16.678,2.56c1.536,0.588,3.051,1.233,4.542,1.951C418.168,59.019,418.766,59.396,419.369,59.767z
			 M453.614,73.208c-9.223-7.176-17.097-16.521-27.235-22.443c-5.838-3.409-12.798-5.497-19.714-5.67
			c12.437-1.299,23.995,5.123,33.686,12.281c9.06,6.69,17.123,14.384,25.472,21.899c2.229,2.009,4.584,4.002,7.058,5.832
			C466.062,81.968,459.676,77.925,453.614,73.208z M422.827,143.191c-0.428-0.311-0.979-0.441-1.618-0.159
			c-17.123,7.532-37.858,14.171-55.664,4.724c-6.461-3.428-9.721-8.428-8.085-15.73c1.106-4.942,3.038-9.844,5.091-14.465
			c1.909-4.295,3.9-8.088,6.581-11.178c0.966-0.513,1.76-1.347,2.402-2.402c1.525-1.301,3.245-2.436,5.275-3.328
			c0.602,0.216,1.257,0.355,2.016,0.351c2.618-0.022,5.151-1.312,7.774-1.599c3.569-0.389,7.143-0.184,10.656,0.562
			c6.667,1.415,12.941,4.677,18.275,8.859c7.796,6.114,12.281,13.985,11.986,22.5c-0.13,0.729-0.263,1.452-0.4,2.185
			C426.344,137.07,425.032,140.465,422.827,143.191z M430.598,154.424c-0.579-0.107-3.497-1.266-6.041-2.749
			c2.375,0.69,4.806,1.207,7.246,1.474c1.604,0.561,3.231,1.045,4.904,1.377C434.653,154.768,432.584,154.79,430.598,154.424z
			 M525.599,87.852c-1.452,2.808-3.081,5.599-4.833,8.44c-2.555,4.147-5.347,8.151-8.312,12.022
			c-3.536,4.102-7.349,7.973-11.277,11.674c-5.157,4.859-10.334,9.781-15.828,14.121c-3.83,2.55-7.821,4.853-11.982,6.83
			c-1.774,0.843-3.566,1.562-5.367,2.223c-0.122-0.137-0.291-0.229-0.506-0.247c-1.481-0.129-3.015,0.09-4.476-0.095
			c-1.603-0.202-3.436-1.284-3.424-2.946c7.534-14.802,1.77-36.342-10.58-46.944c-0.394-0.337-0.954,0.133-0.777,0.586
			c2.633,6.772,7.212,12.562,9.526,19.525c0.634,1.907,1.129,3.854,1.477,5.818c-0.175,3.293-0.241,6.568-1.089,9.873
			c-0.99,3.854-2.725,7.285-4.434,10.771c-5.279,5.276-9.131,12.074-18.476,10.013c-4.932-1.086-6.411-4.453-6.532-8.568
			c3.312-4.772,3.549-10.219,1.944-15.559c0.032-0.604,0.042-1.184,0.008-1.725c-0.039-0.586-0.483-0.916-0.984-1.016
			c-3.564-8.555-11.4-16.465-18.252-20.373c-9.389-5.358-17.921-5.939-28.345-5.107c-2.754,0.219-4.854-0.3-6.185-1.725
			c5.926-12.63,27.5-10.868,37.708-4.896c10.792,6.314,16.062,17.365,22.294,27.639c0.161,0.266,0.521,0.006,0.442-0.252
			c-4.653-15.195-14.754-30.166-31-34.084c-7.818-1.886-17.027-1.426-24.184,2.523c-2.65,1.46-5.334,3.666-6.634,6.331
			c-0.097-0.434-0.179-0.889-0.218-1.395c-0.108-1.395-0.093-2.814,0.029-4.228c2.678-5.42,9.239-9.104,14.815-10.26
			c7.226-1.502,14.107,0.62,20.656,3.529c0.281,0.124,0.539-0.284,0.281-0.47c-7.156-5.151-16.479-6.755-24.837-3.601
			c-3.206,1.21-7.657,3.783-10.33,7.095c0.038-0.172,0.063-0.351,0.105-0.522c0.427-1.781,1.047-3.435,1.795-5
			c6.59-8.256,16.677-10.528,27.675-9.055c5.672,0.762,11.541,1.826,16.266,5.271c4.015,2.928,7.143,7.15,10.407,10.849
			c0.097,0.109,0.31,0.015,0.238-0.136c-2.564-5.338-5.622-10.415-10.779-13.604c-0.551-0.341-1.129-0.64-1.709-0.936
			c-5.855-5.387-14.146-7.726-22.006-7.826c-2.485-0.032-8.19-0.012-11.586,1.724c9.602-15.647,28.832-2.229,39.94,5.228
			c6.106,4.099,12.817,8.095,19.842,11.081c5.218,3.237,10.696,6.058,16.387,8.356c6.876,2.779,16.447,6.926,23.956,5.869
			c0.509-0.07,0.771-0.441,0.804-0.846c0.838,0.021,1.677,0.047,2.529,0.007c0.352-0.017,0.614-0.175,0.812-0.394
			c0.664,0.289,1.475,0.14,1.791-0.756c2.661-7.519-0.326-15.208-2.886-22.394c-2.633-7.389-5.909-14.537-9.75-21.374
			c-5.836-10.388-14.07-24.161-24.984-31.411c18.699-3.947,37.169-2.023,52.812,10.252c12.725,9.986,18.727,23.108,23.511,37.682
			c0.078,1.223,0.059,2.405,0.016,3.578C529.548,75.671,528.049,81.849,525.599,87.852z"/>
		<path fill="#B89D64" d="M488.633,20.277c-0.08-0.035-0.157,0.084-0.081,0.134c9.535,6.23,18.504,12.852,25.565,21.926
			c7.145,9.182,10.744,19.385,13.518,30.555c0.056,0.225,0.351,0.183,0.353-0.045C528.119,49.823,508.415,29.261,488.633,20.277z"/>
		<path fill="#B89D64" d="M518.081,28.331c-0.188-0.527-0.537-0.84-1.139-0.931c-0.152-0.023-0.185,0.208-0.033,0.235
			c0.356,0.301,0.714,0.604,1.072,0.906c0.021,0.055,0.079,0.061,0.128,0.04c8.619,7.458,14.358,16.291,17.918,27.252
			c0.042,0.128,0.251,0.072,0.227-0.059C534.233,44.486,527.333,34.886,518.081,28.331z"/>
		<path fill="#B89D64" d="M530.175,34.915c-0.185-0.179-0.482,0.119-0.321,0.314c2.28,2.774,4.339,5.621,5.931,8.857
			c1.452,2.949,2.138,6.106,3.382,9.119c0.077,0.187,0.326,0.099,0.322-0.084C539.317,46.545,534.739,39.386,530.175,34.915z"/>
		<path fill="#B89D64" d="M415.93,111.439c-0.479-0.399-1.029,0.16-0.884,0.668c1.955,6.82,3.443,12.968-0.409,19.539
			c-3.25,5.541-8.88,9.281-14.88,11.33c-6.559,2.241-13.724,2.476-20.586,2.26c-6.627-0.202-13.968-0.834-18.327-6.51
			c-0.054-0.067-0.178-0.008-0.137,0.076c3.074,6.19,9.734,7.364,16.079,7.877c8.785,0.713,18.006,0.541,26.28-2.804
			c6.667-2.692,12.652-7.528,15.414-14.321C420.847,123.729,421.105,115.779,415.93,111.439z"/>
		<path fill="#B89D64" d="M425.518,128.841c-3.616,6.283-7.46,11.731-14.013,15.245c-0.198,0.104-0.073,0.432,0.134,0.328
			c6.301-3.132,12.303-8.458,14.181-15.488C425.869,128.739,425.599,128.701,425.518,128.841z"/>
		<path fill="#B89D64" d="M518.909,57.743c-0.059-0.111-0.233-0.047-0.184,0.073c3.454,8.022,4.971,16.282,6.209,24.859
			c0.038,0.264,0.478,0.29,0.488,0.003C525.788,73.872,523.028,65.399,518.909,57.743z"/>
		<path fill="#B89D64" d="M519.347,68.114c-0.07-0.116-0.276-0.031-0.248,0.102c0.659,2.898,1.698,5.689,2.285,8.611
			c0.592,2.939,0.74,5.915,1.119,8.886c0.037,0.292,0.498,0.309,0.527,0.003C523.572,80.043,522.307,73.031,519.347,68.114z"/>
		<path fill="#B89D64" d="M518.141,72.712c-0.061-0.178-0.363-0.101-0.32,0.086c1.44,6.311,1.694,12.31,1.444,18.765
			c-0.007,0.188,0.252,0.229,0.293,0.041C520.894,85.37,520.183,78.713,518.141,72.712z"/>
		<path fill="#B89D64" d="M515.047,78.308c-0.06-0.119-0.234-0.076-0.227,0.062c0.198,3.052,0.844,6.047,0.951,9.112
			c0.12,3.47-0.525,6.846-0.622,10.295c-0.011,0.355,0.483,0.559,0.64,0.181C518.136,92.305,517.797,83.769,515.047,78.308z"/>
		<path fill="#B89D64" d="M512.26,83.378c-0.019-0.104-0.186-0.116-0.194-0.001c-0.518,6.782-0.925,13.812-1.076,20.613
			c-0.011,0.419,0.54,0.502,0.644,0.092C513.229,97.754,513.434,89.809,512.26,83.378z"/>
		<path fill="#B89D64" d="M507.052,91.523c-0.041-0.213-0.397-0.25-0.41-0.002c-0.271,5.756-0.769,11.482-1.07,17.229
			c-0.018,0.309,0.45,0.498,0.563,0.159C507.91,103.551,508.126,97.052,507.052,91.523z"/>
		<path fill="#B89D64" d="M503.679,97.404c-0.02-0.192-0.299-0.184-0.333,0c-1.045,5.806-1.971,12.046-2.427,17.925
			c-0.031,0.409,0.583,0.642,0.734,0.209C503.557,110.081,504.264,103.156,503.679,97.404z"/>
		<path fill="#B89D64" d="M499.154,105.727c0.027-0.176-0.253-0.193-0.25-0.004c0.082,4.254-1.472,8.729-2.541,12.793
			c-0.046,0.174,0.234,0.248,0.301,0.084C498.357,114.361,498.46,110.152,499.154,105.727z"/>
		<path fill="#B89D64" d="M466.568,114.139c-0.074-0.296-0.476-0.248-0.471,0.06c0.133,7.397,0.324,14.214-0.882,21.562
			c-0.03,0.182,0.268,0.273,0.32,0.09C467.455,129.132,468.299,120.979,466.568,114.139z"/>
		<path fill="#B89D64" d="M470.785,121.498c-0.076-0.118-0.291-0.066-0.3,0.078c-0.156,2.646,0.62,5.292,0.644,7.966
			c0.026,3.069-0.712,6.002-0.908,9.04c-0.021,0.325,0.394,0.441,0.545,0.152C473.099,134.318,473.572,125.802,470.785,121.498z"/>
		<path fill="#B89D64" d="M476.741,116.573c-0.023-0.126-0.198-0.101-0.196,0.024c0.121,6.107-0.638,12.014-0.99,18.084
			c-0.018,0.307,0.454,0.496,0.564,0.158C477.999,129.061,477.803,122.491,476.741,116.573z"/>
		<path fill="#B89D64" d="M483.131,110.066c-0.058-0.211-0.423-0.116-0.379,0.104c1.257,6.25,0.828,12.466-0.7,18.631
			c-0.046,0.184,0.251,0.262,0.32,0.088C484.797,122.755,484.844,116.398,483.131,110.066z"/>
		<path fill="#B89D64" d="M490.525,107.016c-0.048-0.207-0.404-0.255-0.411-0.002c-0.193,6.647-0.981,12.709-2.146,19.25
			c-0.059,0.325,0.41,0.438,0.545,0.153C491.278,120.626,491.939,113.256,490.525,107.016z"/>
		<path fill="#B89D64" d="M495.643,106.438c-0.086-0.232-0.404-0.117-0.396,0.106c0.238,6.647-0.202,12.312-2.525,18.606
			c-0.107,0.298,0.317,0.603,0.503,0.304C496.644,119.955,497.924,112.624,495.643,106.438z"/>
		<path fill="#B89D64" d="M538.168,22.187c-0.021-0.01-0.037,0.02-0.02,0.034c3.455,2.967,6.233,6.397,7.692,10.771
			c1.368,4.102,0.709,7.891,1.193,12.029c0.04,0.339,0.572,0.545,0.771,0.213C552.492,37.422,545.35,25.685,538.168,22.187z"/>
		<path fill="#B89D64" d="M547.68,25.198c-0.197-0.235-0.543,0.029-0.379,0.284c2.801,4.328,3.43,8.704,3.77,13.717
			c0.025,0.382,0.544,0.325,0.625,0.004C552.921,34.303,550.829,28.922,547.68,25.198z"/>
	</g>
	<path fill="#B89D64" d="M424.387,32.98c-0.727-0.183-1.504-0.142-2.215,0.087c-0.365,0.12-0.701,0.286-0.994,0.534
		c-0.306,0.261-0.325,0.588-0.556,0.857c-0.694,0.807,0.337,1.885,1.146,1.236c0.12,0.004,0.247,0.029,0.35-0.005
		c1.502-0.476,2.322,0.362,3.683,0.739c0.379,0.104,0.722-0.13,0.849-0.48C427.158,34.523,425.597,33.284,424.387,32.98z"/>
	<path fill="#B89D64" d="M436.643,34.596c-1.233-0.776-2.536-0.911-3.951-1.003c-0.826-0.052-0.799,1.188,0,1.27
		c1.146,0.12,2.287,0.877,3.146,1.602c0.656,0.551,1.229,1.527,2.157,1.53c0.296,0,0.481-0.197,0.586-0.449
		C439.065,36.382,437.5,35.135,436.643,34.596z"/>
	<path fill="#B89D64" d="M445.783,46.521c-0.092-1.227-1.977-1.257-1.932,0c0.061,1.704,1.276,3.104,3.02,3.152
		c0.462,0.014,0.799-0.321,0.949-0.724C448.316,47.623,445.874,47.733,445.783,46.521z"/>
	<path fill="#B89D64" d="M445.054,30.611c-0.944-0.376-1.846-0.345-2.7-0.995c-0.934-0.713-2.137,0.854-1.257,1.628
		c1.077,0.949,3.098,1.696,4.237,0.43C445.677,31.293,445.502,30.791,445.054,30.611z"/>
	<path fill="#B89D64" d="M451.091,30.755c-0.66-0.915-2.147-0.104-1.544,0.903c0.963,1.605,1.884,3.589,3.543,4.583
		c0.42,0.253,0.807-0.164,0.749-0.575C453.578,33.805,452.155,32.231,451.091,30.755z"/>
	<path fill="#B89D64" d="M459.959,45.912c-0.708-0.901-2.155,0.26-1.573,1.213c0.564,0.925,1.232,1.973,2.262,2.384
		c0.396,0.159,0.835-0.241,0.825-0.63C461.451,47.766,460.624,46.758,459.959,45.912z"/>
	<path fill="#B89D64" d="M467.193,57.205c-0.013-1.197-1.851-1.197-1.861,0c-0.011,1.115-0.385,2.663,0.475,3.507
		c0.25,0.246,0.661,0.246,0.91,0C467.577,59.868,467.203,58.316,467.193,57.205z"/>
	<path fill="#B89D64" d="M456.812,50.771c-0.584-1.363-1.959-1.867-3.119-2.641c-0.691-0.458-1.568,0.643-0.9,1.167
		c1.158,0.906,2.067,2.045,3.618,2.173C456.802,51.502,456.938,51.06,456.812,50.771z"/>
	<path fill="#B89D64" d="M464.482,63.014c-0.312-0.692-0.9-0.944-1.554-1.294c-1.097-0.588-2.068,1.14-0.965,1.653
		c0.755,0.353,1.33,0.693,2.166,0.506C464.534,63.787,464.63,63.339,464.482,63.014z"/>
	<path fill="#B89D64" d="M473.655,71.397c-0.199-0.404-0.456-0.647-0.776-0.969c-0.659-0.659-1.685,0.363-1.023,1.023
		c0.319,0.32,0.562,0.578,0.968,0.778C473.378,72.503,473.929,71.953,473.655,71.397z"/>
	<path fill="#B89D64" d="M475.72,70.436c-0.477-0.334-0.938-0.611-1.462-0.871c-0.913-0.46-1.72,0.913-0.803,1.372
		c0.583,0.295,1.128,0.525,1.748,0.727C475.968,71.913,476.308,70.853,475.72,70.436z"/>
	<path fill="#B89D64" d="M468.803,51.351c-0.228,0.283-0.455,0.564-0.681,0.845c-0.493,0.613,0.247,1.355,0.86,0.86
		c0.281-0.228,0.562-0.453,0.845-0.68C470.557,51.787,469.391,50.62,468.803,51.351z"/>
	<path fill="#B89D64" d="M465.499,42.629c-1.081,0-1.083,1.68,0,1.68C466.581,44.309,466.583,42.629,465.499,42.629z"/>
	<path fill="#B89D64" d="M460.753,33.824c-0.692-1.103-1.188-2.242-1.511-3.501c-0.239-0.934-1.614-0.535-1.432,0.393
		c0.273,1.39,0.717,2.767,1.383,4.021c0.533,1.004,1.292,2.308,2.494,2.46c0.318,0.04,0.606-0.307,0.6-0.599
		C462.265,35.562,461.287,34.672,460.753,33.824z"/>
	<path fill="#B89D64" d="M451,25.123c-1.024,0-1.025,1.591,0,1.591C452.024,26.714,452.026,25.123,451,25.123z"/>
	<path fill="#B89D64" d="M442.541,22.865c0-0.009-0.01-0.013-0.01-0.023c0.001-0.173-0.062-0.333-0.199-0.447
		c-0.163-0.156-0.379-0.198-0.6-0.163c-1.368-0.169-2.706-0.052-3.999,0.479c-1.034,0.424-2.578,1.075-2.656,2.328
		c-0.018,0.274,0.26,0.56,0.537,0.538c0.962-0.08,1.5-0.933,2.344-1.356c0.975-0.486,2.068-0.68,3.15-0.619
		c-0.018,0.405,0.021,0.75,0.361,1.163c0.17,0.208,0.578,0.205,0.747,0C442.741,24.127,442.562,23.676,442.541,22.865z"/>
	<path fill="#B89D64" d="M427.728,26.805c-0.67,0.346-1.074,0.618-1.494,1.252c-0.199,0.299,0.067,0.656,0.386,0.674
		c0.797,0.042,1.228-0.154,1.939-0.503C429.505,27.762,428.672,26.322,427.728,26.805z"/>
	<path fill="#B89D64" d="M420.188,29.984c-0.831,0.541-1.954,0.977-2.453,1.858c-0.297,0.522,0.189,1.013,0.717,0.93
		c0.937-0.143,1.706-1.006,2.458-1.554C421.64,30.69,420.974,29.474,420.188,29.984z"/>
	<path fill="#B89D64" d="M410.463,32.414c-0.779,0.261-1.694,0.439-2.359,0.931c-0.327,0.245-0.248,0.82,0.222,0.817
		c0.835-0.005,1.653-0.397,2.438-0.66C411.447,33.272,411.154,32.183,410.463,32.414z"/>
	<path fill="#B89D64" d="M409,34.994c-1.222,0.273-2.142,1.097-2.446,2.322c-0.042,0.169,0.203,0.233,0.258,0.07
		c0.378-1.093,1.139-1.838,2.27-2.099C409.272,35.243,409.19,34.95,409,34.994z"/>
	<path fill="#B89D64" d="M400.062,37.804c-0.767,1.02-1.791,2.062-2.253,3.253c-0.184,0.476,0.478,0.998,0.894,0.688
		c1.073-0.802,1.831-2.133,2.641-3.191C401.923,37.799,400.632,37.047,400.062,37.804z"/>
	<path fill="#B89D64" d="M437.626,45.756c-0.433-1.088-1.388-1.936-2.295-2.646c-0.535-0.418-1.557,0.145-1.053,0.813
		c0.729,0.967,1.572,1.994,2.709,2.471C437.339,46.542,437.764,46.103,437.626,45.756z"/>
	<path fill="#B89D64" d="M451.463,41.672c-0.327-0.729-0.862-1.261-1.389-1.856c-0.729-0.819-2.022,0.473-1.201,1.202
		c0.593,0.525,1.126,1.062,1.855,1.389C451.233,42.632,451.689,42.178,451.463,41.672z"/>
	<path fill="#B89D64" d="M463.004,64.504c-0.434-0.852-1.715-0.1-1.282,0.75c0.327,0.644,0.55,1.178,1.172,1.562
		c0.332,0.206,0.701-0.066,0.728-0.416C463.674,65.672,463.329,65.142,463.004,64.504z"/>
	<path fill="#B89D64" d="M480.438,82.894c-0.651-1.152-1.606-2.104-2.475-3.094c-0.525-0.598-1.051-1.196-1.577-1.796
		c-0.303-0.556-0.771-0.983-1.237-1.451c-0.688-0.696-1.775,0.389-1.074,1.076c0.312,0.305,0.606,0.615,0.932,0.878
		c1.469,1.782,2.941,3.72,4.735,5.084C480.168,83.916,480.669,83.302,480.438,82.894z"/>
	<path fill="#B89D64" d="M480.451,71.907c-0.599,0.391-0.979,0.998-1.506,1.483c-0.648,0.593-1.397,1.035-2.217,1.349
		c-0.931,0.356-0.543,1.862,0.42,1.517c1.558-0.56,3.918-1.809,4.288-3.591C481.548,72.128,480.973,71.566,480.451,71.907z"/>
	<path fill="#B89D64" d="M477.709,62.362c-0.471,0.006-0.735,0.08-1.161,0.269c-0.515,0.229-0.515,1.129,0,1.359
		c0.425,0.189,0.689,0.262,1.161,0.267C478.928,64.272,478.931,62.347,477.709,62.362z"/>
	<path fill="#B89D64" d="M473.89,52.453c-0.44,0.004-0.867-0.321-1.02-0.721c-0.18-0.471-0.789-0.477-0.966,0
		c-0.527,1.42,0.596,2.53,1.984,2.546C475.064,54.293,475.066,52.447,473.89,52.453z"/>
	<path fill="#B89D64" d="M482.287,72.353c-0.147,0-0.147,0.229,0,0.229C482.434,72.582,482.435,72.353,482.287,72.353z"/>
	<path fill="#B89D64" d="M485.34,81.726c-0.852,0-0.853,1.324,0,1.324S486.192,81.726,485.34,81.726z"/>
	<path fill="#B89D64" d="M476.568,25.113c-0.758-2.114-2.819-3.603-4.403-5.095c-0.672-0.636-1.569,0.307-0.999,0.998
		c1.342,1.631,2.669,3.787,4.666,4.662C476.189,25.835,476.732,25.568,476.568,25.113z"/>
	<path fill="#B89D64" d="M485.232,26.793c-0.65-0.747-1.984,0.254-1.391,1.073c0.968,1.333,2.005,3.377,3.654,3.93
		c0.329,0.109,0.76-0.19,0.725-0.553C488.049,29.496,486.323,28.048,485.232,26.793z"/>
	<path fill="#B89D64" d="M485.788,40.293c-0.329-0.78-0.896-1.286-1.487-1.891c-0.623-0.632-1.605,0.352-0.975,0.976
		c0.603,0.593,1.109,1.159,1.891,1.487C485.526,40.994,485.919,40.604,485.788,40.293z"/>
	<path fill="#B89D64" d="M493.082,36.198c-0.544-0.178-0.752,0.648-0.234,0.844c1.493,0.569,1.094,2.271,2.207,3.02
		c0.18,0.119,0.429,0.064,0.575-0.073C497.221,38.504,494.243,36.579,493.082,36.198z"/>
	<path fill="#B89D64" d="M475.296,29.576c-0.424-1.023-1.93-0.332-1.372,0.581c0.33,0.537,0.628,1.041,1.094,1.468
		c0.267,0.246,0.846,0.101,0.794-0.329C475.738,30.669,475.539,30.159,475.296,29.576z"/>
	<path fill="#B89D64" d="M381.378,112.8c-0.437-1.077-1.699-1.166-2.752-1.126c-1.393,0.053-2.461,0.477-3.583,1.238
		c-0.615,0.418-0.218,1.275,0.489,1.161c1.062-0.173,2.215-0.212,3.292-0.23c0.839-0.016,1.764,0.216,2.397-0.442
		C381.36,113.256,381.459,113.001,381.378,112.8z"/>
	<path fill="#B89D64" d="M391.024,110.312c-1.833-2.239-4.943-3.156-7.663-3.769c-1.164-0.261-1.661,1.496-0.496,1.794
		c2.657,0.682,5.074,2.092,7.732,2.708C391.047,111.15,391.295,110.646,391.024,110.312z"/>
	<path fill="#B89D64" d="M395.962,115.964c0.026,0.534,0.089,0.784,0.447,1.175c0.206,0.225,0.616,0.225,0.822,0
		c0.367-0.4,0.42-0.635,0.446-1.175C397.733,114.859,395.907,114.855,395.962,115.964z"/>
	<path fill="#B89D64" d="M385.834,120.234c-0.133-0.305-0.563-0.658-0.504-1.021c0.149-0.909-1.173-1.321-1.414-0.389
		c-0.252,0.974,0.298,2.639,1.608,2.17C385.867,120.873,385.976,120.557,385.834,120.234z"/>
	<path fill="#B89D64" d="M381.574,120.744c-2.201,0.279-3.825,1.843-4.101,4.054c-0.031,0.255,0.166,0.521,0.371,0.646
		c0.722,0.435,1.033-0.342,1.203-0.907c0.386-1.285,1.417-2.138,2.724-2.333C382.59,122.079,382.406,120.639,381.574,120.744z"/>
	<path fill="#B89D64" d="M370.738,125.511c-0.458-0.944-1.924-0.11-1.42,0.832c0.312,0.584,0.526,1.13,1.049,1.54
		c0.386,0.307,1.075,0.149,1.053-0.438C371.392,126.709,371.061,126.178,370.738,125.511z"/>
	<path fill="#B89D64" d="M368.162,127.748c-0.975,1.085-2.091,2.874-1.686,4.395c0.116,0.433,0.845,0.604,1.045,0.135
		c0.231-0.541,0.258-1.09,0.431-1.652c0.228-0.739,0.606-1.391,1.106-1.979C369.583,128.027,368.712,127.134,368.162,127.748z"/>
	<path fill="#B89D64" d="M393.373,134.829c-1.545-2.375-4.54-3.339-7.233-3.591c-0.941-0.086-0.9,1.33,0,1.449
		c2.522,0.336,4.439,1.605,6.647,2.728C393.145,135.598,393.622,135.21,393.373,134.829z"/>
	<path fill="#B89D64" d="M370.23,118.585c-1.575-0.571-3.224-0.306-4.816,0c-0.426,0.082-0.427,0.78,0,0.862
		c1.592,0.305,3.242,0.57,4.816,0C370.653,119.294,370.655,118.738,370.23,118.585z"/>
	<path fill="#B89D64" d="M398.038,105.784c-1.736-3.082-5.943-3.448-8.966-2.457c-0.685,0.224-0.402,1.192,0.295,1.067
		c3.037-0.547,5.35,0.834,7.925,2.135C397.77,106.771,398.317,106.275,398.038,105.784z"/>
	<path fill="#B89D64" d="M402.381,119.998c-0.456,0.436-0.783,0.643-0.756,1.309c0.012,0.297,0.237,0.523,0.537,0.535
		c0.666,0.027,0.859-0.287,1.307-0.755C404.154,120.369,403.098,119.312,402.381,119.998z"/>
	<path fill="#B89D64" d="M388.156,126.917c-0.585-0.687-1.673,0.401-0.987,0.985c0.395,0.337,0.637,0.591,1.138,0.701
		c0.34,0.078,0.627-0.209,0.55-0.551C388.744,127.555,388.488,127.309,388.156,126.917z"/>
	<path fill="#B89D64" d="M374.98,133.76c-0.625-0.479-1.166,0.485-0.769,0.999c0.654,0.845,1.486,2.14,2.612,2.314
		c0.397,0.062,0.68-0.214,0.616-0.613C377.25,135.29,375.861,134.438,374.98,133.76z"/>
	<path fill="#B89D64" d="M364.964,136.234c-0.659-0.307-0.996-0.161-1.72-0.113c-0.576,0.038-0.576,0.854,0,0.895
		c0.713,0.047,1.056,0.193,1.72-0.117C365.215,136.782,365.215,136.354,364.964,136.234z"/>
	<path fill="#B89D64" d="M493.617,50.856c-0.295-0.851-0.973-1.287-1.532-1.953c-0.628-0.749-1.068-1.689-1.319-2.629
		c-0.343-1.29-2.131-0.713-1.948,0.537c0.283,1.936,1.962,5.262,4.361,4.816C493.498,51.569,493.72,51.157,493.617,50.856z"/>
	<path fill="#B89D64" d="M517.83,24.911c-0.681-1.511-2.573-1.882-3.861-2.671c-0.43-0.265-0.965,0.387-0.552,0.715
		c1.241,0.985,2.232,2.625,3.957,2.751C517.812,25.737,517.979,25.242,517.83,24.911z"/>
</g>
</svg>
